<svg width="1920" height="764" viewBox="0 0 1920 764" fill="none" xmlns="http://www.w3.org/2000/svg">
<g filter="url(#filter0_d_1_192)">
<path d="M336.67 30.0339C64.1653 29.2315 11.5648 42.8753 1.42067 48.3318C-0.579315 49.4076 -0.999504 51.6738 -0.999502 53.9447L-0.99901 661.628C-0.99901 666.628 175.213 649.961 358.829 650.334C597.312 650.818 736.328 688.489 974.752 693.82C1178.43 698.373 1362.17 614.933 1564.44 639.124C1692.44 654.432 1920 671 1920 667.128V195C1920 191.5 1679.69 155.551 1543.33 131.001C1339.55 94.3119 1229.36 238.314 1022.59 228.97C753.586 216.813 605.954 30.8269 336.67 30.0339Z" fill="#4B83B4"/>
</g>
<defs>
<filter id="filter0_d_1_192" x="-51" y="0" width="2021" height="764" filterUnits="userSpaceOnUse" color-interpolation-filters="sRGB">
<feFlood flood-opacity="0" result="BackgroundImageFix"/>
<feColorMatrix in="SourceAlpha" type="matrix" values="0 0 0 0 0 0 0 0 0 0 0 0 0 0 0 0 0 0 127 0" result="hardAlpha"/>
<feOffset dy="20"/>
<feGaussianBlur stdDeviation="25"/>
<feColorMatrix type="matrix" values="0 0 0 0 0 0 0 0 0 0 0 0 0 0 0 0 0 0 0.1 0"/>
<feBlend mode="normal" in2="BackgroundImageFix" result="effect1_dropShadow_1_192"/>
<feBlend mode="normal" in="SourceGraphic" in2="effect1_dropShadow_1_192" result="shape"/>
</filter>
</defs>
</svg>
