<svg width="430" height="420" viewBox="0 0 430 420" fill="none" xmlns="http://www.w3.org/2000/svg">
<path d="M189.274 347.049C190.017 336.37 186.614 327.19 176.917 322.029C165.859 316.141 153.3 313.776 142.335 307.687C131.664 301.769 122.832 291.43 115.331 281.941C107.861 272.483 101.505 262.191 96.3856 251.296C86.3792 229.954 79.0329 204.037 81.3528 180.315C83.9511 153.719 98.087 129.564 115.409 109.799C151.63 68.4902 218.892 52.9279 268.707 77.6235C280.74 83.5887 291.427 91.4857 301.82 99.9236C306.088 103.385 310.264 107.017 313.837 111.205C316.265 114.064 317.997 117.062 319.961 120.246C321.895 123.367 324.385 125.995 326.287 129.209C333.989 142.159 336.742 155.836 338.83 170.595C339.866 177.92 340.624 185.292 341.134 192.663C341.676 200.467 342.665 208.874 341.738 216.648C340.175 229.722 333.633 243.631 327.725 255.237C321.833 266.796 314.688 277.722 306.506 287.783C297.752 298.554 287.792 308.321 276.966 317.006C267.238 324.811 256.907 329.57 258.732 343.881C258.871 345.04 262.366 344.252 262.196 342.954C261.067 334.067 264.872 328.689 271.816 323.636C276.811 320.004 281.637 316.156 286.292 312.107C295.463 304.102 303.923 295.278 311.455 285.727C326.04 267.229 337.082 245.995 343.578 223.355C347.584 209.415 345.032 193.22 343.47 178.956C341.815 163.857 340.021 148.001 333.03 134.324C329.906 128.22 326.024 123.12 322.405 117.418C319.049 112.132 315.337 107.558 310.682 103.339C301.17 94.7002 290.623 86.7413 279.518 80.2816C235.517 54.6588 176.267 60.655 134.973 89.2758C113.878 103.895 96.7723 125.778 86.4565 149.191C75.5066 173.995 76.0789 199.2 83.0231 224.993C90.0138 250.971 103.284 275.002 121.874 294.49C126.513 299.358 131.37 304.319 137.108 307.888C143.356 311.783 150.284 314.24 157.182 316.697C163.817 319.062 170.823 321.333 176.793 325.166C184.341 330.003 186.413 339.075 185.841 347.497C185.717 348.888 189.197 348.208 189.274 347.049Z" fill="#272525"/>
<path d="M186.004 347.528C189.499 352.164 197.789 352.365 203.016 352.875C210.888 353.632 218.405 354.281 226.169 352.535C234.567 350.649 243.104 350.139 251.487 348.192C255.322 347.296 259.977 346.384 261.555 342.412C262.003 341.3 258.539 341.701 258.091 342.845C256.606 346.6 248.13 346.925 244.79 347.744C239.238 349.119 233.407 349.027 227.793 350.325C220.694 351.963 214.43 351.747 207.285 351.159C202.042 350.727 192.762 350.881 189.205 346.183C188.525 345.24 185.169 346.43 186.004 347.528Z" fill="#272525"/>
<path d="M185.651 345.766C181.568 350.727 183.347 361.777 183.934 367.572C184.661 374.743 184.785 384.803 188.59 391.17C192.348 397.429 199.57 399.778 206.236 401.478C214.294 403.533 223.187 405.62 231.538 405.233C238.436 404.909 246.293 402.9 252.232 399.314C259.253 395.065 262.625 390.336 264.388 382.33C266.012 374.99 266.105 366.876 265.517 359.428C265.115 354.251 264.96 346.724 261.867 342.428C261.218 341.516 258.789 342.397 258.527 343.325C258.48 343.495 258.434 343.665 258.387 343.835C258.882 343.479 259.393 343.108 259.888 342.753C259.795 342.784 259.702 342.799 259.609 342.83C257.537 343.371 257.985 345.102 260.073 344.561C261.125 344.283 261.697 343.943 262.006 342.892C260.893 343.185 259.779 343.495 258.666 343.788C261.14 347.234 261.573 353.725 261.914 357.82C262.424 364.187 262.115 370.369 261.728 376.736C261.264 384.309 259.315 391.68 252.943 396.332C245.35 401.88 234.802 404.152 225.522 402.977C219.166 402.173 212.376 400.783 206.236 398.99C199.663 397.074 192.982 394.106 190.6 387.106C188.59 381.171 188.172 373.97 187.538 367.804C186.935 362.024 184.769 350.882 188.899 345.859C189.842 344.669 186.378 344.885 185.651 345.766Z" fill="#272525"/>
<path d="M192.925 396.718C191.688 400.288 192.77 406.331 193.714 409.932C194.626 413.409 196.451 415.804 199.9 416.886C204.431 418.308 209.597 418.246 214.268 418.586C219.712 418.988 225.341 419.389 230.785 418.941C235.379 418.555 239.833 417.087 244.349 416.221C247.38 415.65 251.092 415.201 253.814 413.641C261.315 409.36 260.496 400.227 260.496 392.87C260.496 391.804 257.031 392.453 257.031 393.798C257.031 402.328 257.681 411.384 247.21 413.733C240.405 415.263 233.229 417.133 226.285 417.056C219.403 416.979 211.855 417.04 205.112 415.541C199.9 414.382 197.642 412.25 196.869 407.011C196.389 403.812 195.307 399.392 196.374 396.286C196.791 395.111 193.327 395.544 192.925 396.718Z" fill="#272525"/>
<path d="M208.949 407.428C208.887 407.382 208.826 407.335 208.764 407.289C207.774 407.799 206.769 408.293 205.779 408.803C207.975 409.993 210.31 410.658 212.8 410.333C213.496 410.241 214.517 409.901 214.765 409.159C214.826 408.973 214.888 408.788 214.95 408.618C214.997 408.448 214.95 408.293 214.826 408.154C213.048 406.362 210.078 405.62 207.898 404.353C205.655 403.039 203.675 401.123 201.309 400.118C200.397 400.675 199.469 401.231 198.556 401.787C201.711 403.024 204.665 405.342 208.192 404.554C208.764 404.43 209.784 403.951 209.692 403.225C209.444 401.324 205.021 399.16 203.706 398.403C202.284 397.584 200.768 396.718 199.128 397.584C194.226 400.18 201.696 406.192 204.124 407.722C204.882 408.201 207.913 407.382 207.109 406.207C205.145 403.302 202.098 401.045 199.175 399.16C198.417 398.666 197.01 399.222 196.406 399.716C192.911 402.545 200.536 411.724 203.722 412.219C204.325 412.311 206.954 411.925 206.521 410.812C205.176 407.366 203.072 403.456 199.283 402.39C198.34 402.127 196.901 402.637 196.484 403.549C194.195 408.572 201.572 415.078 206.351 415.217C210.852 415.34 210.187 412.188 208.021 409.545C205.671 406.671 202.175 405.543 200.165 409.468C198.386 412.93 200.644 415.093 204.078 413.872C204.603 413.687 205.129 413.285 205.129 412.698C205.114 410.689 202.005 409.267 200.845 407.644C199.144 405.203 199.005 402.127 197.427 399.84C196.84 398.99 193.623 399.948 194.087 400.984C196.314 405.883 209.506 423.593 214.842 412.373C218.755 404.136 203.614 405.62 199.794 408.463C199.221 408.881 199.422 409.592 200.118 409.684C203.242 410.102 206.289 410.905 209.413 411.322C212.244 411.693 215.058 411.508 217.858 412.25C218.43 411.616 219.018 410.967 219.59 410.333C215.105 409.947 209.614 406.331 205.748 404.105C204.975 403.657 201.974 404.399 202.763 405.62C204.356 408.093 209.042 408.927 211.625 409.252C213.759 409.514 219.188 408.602 220.673 409.87C221.137 409.36 221.585 408.834 222.049 408.324C219.373 408.958 209.181 405.033 206.583 402.931C205.825 403.487 205.067 404.044 204.294 404.584C207.48 404.445 210.914 405.682 214.038 406.269C216.234 406.686 219.42 406.547 221.399 407.66C221.786 407.088 222.157 406.532 222.544 405.96C218.012 407.15 212.228 403.611 207.758 403.008C207.093 402.915 203.722 404.152 205.315 404.785C211.702 407.351 219.234 405.852 225.56 408.247C226.178 408.371 226.797 408.494 227.4 408.618C228.467 410.179 228.22 410.874 226.673 410.72C225.467 411.662 221.678 411.431 220.286 411.554C215.631 411.925 211.269 411.446 206.629 411.029C206.181 411.678 205.732 412.342 205.284 412.991C211.95 413.517 218.94 413.331 225.529 414.089C225.807 413.486 226.086 412.883 226.364 412.281C218.971 414.599 210.852 412.157 203.335 412.868C202.748 412.93 200.799 413.594 201.495 414.506C203.165 416.731 207.96 416.422 210.403 416.5C213.496 416.608 216.62 416.407 219.698 416.221C220.827 416.159 224.044 415.294 225.127 415.804C225.359 415.294 225.591 414.769 225.823 414.259C220.843 416.144 214.656 415.603 210.063 418.524C208.779 419.343 209.754 420.085 210.898 419.992C217.796 419.42 224.261 415.696 230.741 413.517C234.097 412.389 240.082 411.802 242.294 408.834C242.804 408.154 241.845 407.861 241.351 407.814C232.891 407.15 224.338 410.658 215.94 411.369C215.94 411.972 215.94 412.59 215.94 413.192C225.637 410.843 235.597 409.499 245.31 407.196C247.413 406.702 246.934 404.986 244.846 405.465C239.479 406.671 234.236 407.505 228.792 408.201C227.184 408.402 219.451 410.272 218.306 409.236C217.842 409.746 217.394 410.272 216.93 410.782C223.642 409.36 230.896 409.622 237.67 410.179C239 410.287 241.351 408.402 239.015 408.216C231.638 407.613 223.75 407.505 216.45 409.051C216.079 409.128 214.347 409.932 215.074 410.596C217.054 412.42 223.209 410.751 225.482 410.472C232.179 409.669 238.706 408.68 245.294 407.196C245.14 406.624 244.985 406.037 244.83 405.465C235.118 407.768 225.173 409.113 215.461 411.462C213.852 411.848 213.388 413.455 215.461 413.285C223.549 412.605 231.87 409.143 239.99 409.792C239.68 409.452 239.371 409.113 239.046 408.773C239.386 408.324 240.005 408.773 239.216 408.649C238.659 408.556 237.5 409.236 237.005 409.422C234.082 410.457 231.143 411.446 228.204 412.481C222.76 414.413 217.177 417.597 211.347 418.091C211.625 418.586 211.903 419.08 212.182 419.559C216.373 416.901 222.482 417.458 227.153 415.68C227.648 415.495 228.823 414.583 227.849 414.135C226.209 413.378 224.431 413.981 222.714 414.151C219.358 414.491 207.093 416.391 204.665 413.161C204.047 413.702 203.428 414.259 202.825 414.8C210.697 414.042 219.049 416.453 226.797 414.027C227.431 413.826 229.303 412.42 227.632 412.219C220.765 411.415 213.558 411.585 206.614 411.029C205.284 410.921 202.933 412.791 205.268 412.991C212.414 413.625 219.049 413.872 226.178 412.636C228.978 412.157 232.195 411.817 233.386 408.896C233.432 408.726 233.386 408.572 233.262 408.433C231.406 406.083 226.627 406.192 223.951 405.805C218.801 405.064 212.924 405.079 208.052 403.116C207.233 403.704 206.428 404.306 205.609 404.894C211.362 405.682 217.1 409.236 222.992 407.706C223.58 407.552 225.266 406.64 224.137 406.006C221.894 404.724 218.631 404.878 216.141 404.415C212.677 403.765 209.166 402.483 205.624 402.653C205.207 402.668 202.314 403.472 203.335 404.306C206.135 406.563 210.573 407.691 213.883 409.097C216.93 410.395 219.25 410.843 222.482 410.086C222.822 410.009 224.616 409.19 223.859 408.541C219.404 404.77 209.831 410.364 205.933 404.306C204.944 404.816 203.938 405.311 202.949 405.821C207.573 408.479 212.769 411.879 218.198 412.342C219.11 412.42 221.863 410.936 219.93 410.426C216.172 409.422 212.228 409.623 208.393 408.958C206.738 408.68 205.253 408.123 203.768 408.587C201.912 409.159 205.392 408.772 205.562 408.803C207.093 409.051 211.068 408.896 212.012 410.766C210.682 413.532 209.305 414.135 207.882 412.574C207.217 412.141 206.629 411.647 206.088 411.06C202.964 408.154 199.268 404.013 197.505 400.118C196.391 400.505 195.277 400.875 194.164 401.262C195.37 403.024 195.618 405.759 196.747 407.706C197.69 409.344 201.588 412.018 201.603 413.702C201.959 413.316 202.299 412.914 202.655 412.528C205.021 411.693 201.758 408.773 204.743 410.967C205.671 411.647 206.707 413.239 206.212 414.398C206.861 414.011 207.526 413.61 208.176 413.223C204.248 413.718 198.092 407.119 199.886 403.194C198.958 403.58 198.03 403.966 197.087 404.353C200.056 405.187 201.99 409.282 202.98 411.817C203.907 411.353 204.835 410.874 205.779 410.411C203.877 410.117 197.257 401.849 199.113 400.35C198.185 400.536 197.273 400.721 196.345 400.906C199.036 402.637 202.021 404.971 203.815 407.629C204.804 407.119 205.81 406.624 206.8 406.114C205.671 405.404 200.397 400.644 201.433 400.412C201.804 400.335 206.135 404.09 206.15 404.214C206.645 403.765 207.155 403.333 207.65 402.884C206.165 403.224 202.67 400.736 201.247 400.18C200.242 399.794 197.025 401.231 198.494 401.849C200.025 402.498 211.238 409.638 211.238 409.653C211.888 409.267 212.553 408.865 213.202 408.479C211.501 408.572 209.924 408.139 208.454 407.196C207.666 406.763 204.449 407.938 205.47 408.711C205.531 408.757 205.593 408.803 205.655 408.85C206.707 409.53 209.893 408.17 208.949 407.428Z" fill="#272525"/>
<path d="M240.582 410.765C236.545 411.924 232.462 412.728 228.286 413.161C226.028 413.392 223.739 413.192 221.574 413.856C220.909 414.057 219.084 415.417 220.739 415.664C229.493 416.962 239.87 415.525 248.5 413.918C249.165 413.794 251.702 412.419 249.799 412.017C245.747 411.167 240.906 411.229 236.793 411.322C234.163 411.383 231.782 411.445 229.709 413.176C229.554 413.3 229.261 413.671 229.369 413.918C232.493 420.779 254.671 415.448 252.011 410.673C250.403 407.783 240.118 409.003 238.154 409.204C233.344 409.699 224.977 410.997 221.729 415.17C221.358 415.649 221.821 416.066 222.285 416.143C227.853 417.194 233.637 414.582 238.757 412.651C243.072 411.012 249.799 409.359 252.954 405.65C253.341 405.202 252.846 404.738 252.398 404.676C247.046 403.842 241.216 405.743 235.895 406.515C232.617 406.994 228.333 406.485 225.41 408.277C224.11 409.065 225.1 409.869 226.245 409.745C231.55 409.189 236.963 408.277 242.237 407.334C244.17 406.994 247.479 406.655 248.454 404.615C248.624 404.275 248.639 403.904 248.222 403.734C241.865 401.184 233.576 403.672 227.034 403.996C226.879 404.615 226.74 405.233 226.585 405.851C233.684 404.182 240.984 403.347 248.237 402.776C247.959 402.281 247.681 401.786 247.402 401.307C243.118 404.197 235.184 404.939 232.508 409.838C231.998 410.765 233.266 410.904 233.885 410.827C238.262 410.379 242.453 408.231 246.196 406.021C247.82 405.047 252.181 403.162 252.32 400.875C252.382 399.901 250.928 400.102 250.356 400.226C245.098 401.4 240.906 405.635 235.71 406.871C236.019 407.396 236.329 407.922 236.622 408.447C242.051 405.758 251.841 404.46 255.692 399.298C256.032 398.835 255.615 398.387 255.135 398.325C252.846 398 250.959 399.237 249.908 401.292C249.428 402.235 250.65 402.327 251.284 402.281C253.882 402.126 255.212 400.272 256.326 398.062C257.099 396.501 253.697 397.181 253.094 397.985C250.774 401.122 249.289 404.785 247 407.968C248.083 407.999 249.15 408.014 250.232 408.045C251.423 405.743 254.594 399.7 257.007 398.495C256.202 398.417 255.398 398.325 254.594 398.247C255.429 402.884 250.665 407.798 247.928 411.105C249.042 411.043 250.155 410.982 251.269 410.92C252.135 407.644 254.702 401.57 257.672 399.499C256.775 399.561 255.878 399.607 254.98 399.669C256.635 402.25 253.527 409.096 251.965 411.167C253.047 411.198 254.114 411.213 255.197 411.244C255.707 410.255 256.202 409.266 256.666 408.246C257.3 406.933 254.996 407.226 254.362 407.504C249.475 409.622 245.02 412.836 239.731 413.949C240.381 414.088 241.046 414.212 241.695 414.351C240.783 412.156 256.573 404.8 256.852 404.692C256.156 404.367 255.475 404.027 254.779 403.703C252.722 405.557 250.186 407.041 247.789 408.432C246.258 409.946 244.51 410.503 242.53 410.085C243.799 408.633 245.283 407.474 246.969 406.608C249.026 405.418 245.917 405.001 244.819 405.588C241.742 407.195 238.123 408.741 234.766 409.606C231.379 410.487 229.384 410.75 233.452 410.054C239.282 409.05 244.85 406.685 250.789 406.253C250.789 405.65 250.789 405.032 250.789 404.429C244.51 405.944 238.478 407.643 231.998 408.293C229.755 408.524 224.497 409.297 229.013 407.798C230.529 407.288 232.122 406.948 233.684 406.577C238.973 405.356 244.371 404.676 249.676 403.471C249.243 403.007 248.81 402.544 248.361 402.096C244.804 403.996 241.015 404.522 237.102 405.078C234.473 405.449 229.663 406.84 227.173 405.542C226.941 406.052 226.709 406.577 226.477 407.087C229.786 405.789 234.055 406.253 237.566 405.758C241.711 405.171 245.825 404.228 250.047 404.522C249.738 404.182 249.428 403.842 249.103 403.502C246.691 408.061 235.493 410.595 231.024 411.955C229.044 412.558 227.018 412.836 225.611 414.459C225.209 414.907 225.719 415.371 226.167 415.432C231.936 416.375 237.396 414.428 243.087 413.701C242.933 413.145 242.793 412.589 242.639 412.033C236.499 414.382 228.982 414.922 222.471 414.891C221.62 414.891 218.759 416.545 220.739 416.808C224.806 417.38 228.92 417.441 232.988 416.87C232.709 416.375 232.431 415.896 232.153 415.401C230.405 416.298 225.904 416.653 223.94 416.638C223.074 416.638 220.244 418.322 222.208 418.554C229.307 419.435 235.942 418.214 242.484 415.371C246.196 413.763 254.114 410.533 254.95 405.928C255.228 404.352 252.042 405.619 251.609 406.114C251.331 406.423 251.052 406.732 250.789 407.041C249.799 408.153 253.279 407.953 254.022 407.118C254.3 406.809 254.578 406.5 254.841 406.191C253.728 406.253 252.614 406.314 251.501 406.376C250.851 409.993 243.938 412.743 241.138 413.964C235.756 416.298 230.22 417.426 224.358 416.7C223.786 417.333 223.198 417.982 222.626 418.616C226.415 418.647 230.931 418.199 234.333 416.452C235.694 415.757 234.596 414.83 233.498 414.984C230.049 415.463 226.338 415.432 222.889 414.953C222.316 415.587 221.729 416.236 221.156 416.87C228.704 416.916 236.947 416.19 244.031 413.47C245.562 412.882 245.16 411.6 243.582 411.801C240.071 412.249 236.607 413.099 233.112 413.655C226.972 414.629 230.544 414.165 231.843 413.624C233.436 412.96 235.138 412.542 236.762 411.971C241.494 410.302 249.768 408.447 252.351 403.61C252.722 402.899 252.026 402.636 251.408 402.59C246.552 402.25 241.881 403.363 237.102 403.996C233.127 404.522 228.889 404.213 225.116 405.696C224.59 405.913 223.476 406.747 224.42 407.242C227.869 409.05 233.065 407.535 236.638 407.025C241.525 406.33 246.134 405.495 250.526 403.146C252.274 402.219 250.232 401.539 249.212 401.771C245.624 402.59 222.548 404.568 223.167 409.73C223.198 410.008 223.631 410.163 223.832 410.209C232.833 411.94 242.592 408.262 251.253 406.175C252.862 405.789 253.31 404.197 251.253 404.352C245.778 404.754 240.334 406.5 235.014 407.829C232.369 408.478 228.766 408.973 227.095 411.368C226.771 411.832 227.142 412.28 227.652 412.342C234.024 413.083 241.51 409.498 246.969 406.639C246.258 406.299 245.531 405.959 244.819 405.619C242.793 406.794 235.741 411.152 239.746 413.253C241.556 414.211 246.412 411.43 247.789 410.719C251.176 408.957 254.718 406.886 257.563 404.321C258.986 403.023 256.156 403.085 255.491 403.332C253.403 404.12 236.653 411.569 238.231 415.355C238.525 416.066 239.623 415.881 240.195 415.757C245.856 414.567 250.511 411.275 255.723 409.003C254.95 408.756 254.192 408.509 253.418 408.262C252.954 409.266 252.46 410.271 251.949 411.26C251.16 412.821 254.578 412.125 255.182 411.337C257.331 408.494 260.409 401.879 258.182 398.402C257.733 397.691 255.97 398.232 255.491 398.572C251.609 401.276 248.964 406.964 247.773 411.445C247.371 412.944 250.696 411.77 251.114 411.26C254.176 407.566 258.955 402.575 258.027 397.398C257.873 396.532 256.032 396.934 255.615 397.15C251.81 399.051 248.84 404.429 246.985 408.045C246.196 409.575 249.614 408.942 250.217 408.123C252.506 404.939 253.975 401.277 256.311 398.139C255.228 398.108 254.161 398.093 253.078 398.062C252.97 398.294 251.98 400.427 251.748 400.442C252.212 400.767 252.661 401.107 253.125 401.431C254.47 398.835 246.072 402.76 245.469 403.007C242.066 404.429 238.556 405.449 235.246 407.087C233.421 407.984 234.519 409.065 236.158 408.664C241.37 407.412 245.577 403.177 250.805 402.018C250.155 401.802 249.49 401.586 248.84 401.369C248.639 404.645 236.05 408.787 234.349 408.973C234.813 409.297 235.261 409.637 235.725 409.962C238.123 405.588 245.654 405.016 249.536 402.389C250.789 401.539 249.861 400.828 248.701 400.921C241.123 401.524 233.514 402.451 226.105 404.182C225.023 404.429 223.755 406.129 225.657 406.036C228.626 405.897 231.55 405.465 234.504 405.171C236.669 404.97 239.654 404.676 241.912 404.924C242.902 405.032 244.68 404.584 243.01 405.403C241.664 406.067 239.391 405.928 237.875 406.145C234.148 406.655 230.421 407.489 226.678 407.891C226.956 408.385 227.235 408.88 227.513 409.359C228.858 408.54 233.916 408.694 235.37 408.478C238.648 407.999 242.035 407.242 245.345 407.025C246.876 406.917 248.206 406.036 246.552 407.412C245.515 408.277 243.799 408.633 242.561 409.173C238.432 410.951 233.947 413.022 229.524 413.887C226.152 414.552 226.585 414.072 229.462 413.022C231.751 412.187 234.132 411.6 236.56 411.291C237.241 411.198 247.588 410.163 248.268 411.723C248.856 413.083 243.845 414.691 242.979 414.83C240.798 415.293 238.571 415.34 236.329 414.938C236.329 414.397 236.329 413.871 236.344 413.331C238.386 412.465 245.577 413.547 247.65 413.964C248.083 413.331 248.516 412.697 248.949 412.063C240.829 413.578 231.024 415.061 222.827 413.856C222.548 414.459 222.27 415.061 221.992 415.664C224.574 414.876 227.931 415.185 230.606 414.814C234.132 414.335 237.566 413.547 240.984 412.573C243.103 411.909 242.67 410.163 240.582 410.765Z" fill="#272525"/>
<path d="M183.036 356.955C185.82 357.48 188.712 360.154 191.526 360.957C195.13 361.993 199.027 362.41 202.739 362.765C210.55 363.507 218.499 362.549 226.34 362.843C232.991 363.105 239.888 364.172 246.477 362.874C251.318 361.915 258.494 362.055 262.701 359.227C264.727 357.882 261.618 357.65 260.551 358.207C260.257 358.361 259.948 358.516 259.654 358.67C257.597 359.736 260.659 360.277 261.804 359.69C262.098 359.536 262.407 359.381 262.701 359.227C261.989 358.887 261.262 358.547 260.551 358.207C258.819 359.366 256.081 359.087 254.133 359.396C250.436 359.999 246.848 361.174 243.09 361.452C236.594 361.916 229.99 360.865 223.479 360.849C216.303 360.834 209.049 361.375 201.935 360.509C198.393 360.076 194.604 359.69 191.325 358.207C188.928 357.125 187.753 355.564 185.17 355.085C184.056 354.868 181.087 356.584 183.036 356.955Z" fill="#272525"/>
<path d="M186.955 370.57C199.714 377.184 216.649 375.469 230.584 376.303C237.559 376.721 243.622 375.948 250.473 375.005C254.99 374.387 259.738 374.588 263.913 372.533C265.352 371.837 265.104 370.725 263.465 370.864C263.016 370.895 262.568 370.941 262.119 370.972C261.501 371.018 260.294 371.42 260.155 372.146C260.124 372.285 260.093 372.44 260.062 372.579C259.799 373.893 263.295 373.336 263.527 372.146C263.558 372.007 263.589 371.853 263.62 371.714C262.97 372.1 262.305 372.502 261.655 372.888C262.104 372.857 262.552 372.811 263.001 372.78C262.846 372.224 262.707 371.667 262.552 371.111C259.289 372.703 254.541 372.548 250.953 373.089C244.504 374.047 238.503 374.727 231.945 374.341C218.474 373.553 202.034 375.283 189.739 368.901C188.703 368.376 185.532 369.844 186.955 370.57Z" fill="#272525"/>
<path d="M186.419 384.834C192.45 388.543 199.023 390.413 206.107 390.815C213.469 391.232 220.923 391.603 228.285 391.897C235.167 392.175 242.39 391.974 249.195 390.939C253.51 390.274 259 390.259 262.697 387.77C263.393 387.307 263.687 386.581 262.681 386.318C262.558 386.287 262.434 386.256 262.31 386.21C261.212 385.916 258.243 387.57 260.191 388.095C260.315 388.126 260.439 388.157 260.562 388.203C260.562 387.724 260.547 387.23 260.547 386.751C257.717 388.636 251.84 388.852 248.422 389.254C241.338 390.104 233.868 390.289 226.769 389.702C213.964 388.636 200.524 390.15 189.156 383.15C188.213 382.563 185.011 383.969 186.419 384.834Z" fill="#272525"/>
<path d="M329.79 84.3301C330.115 84.5928 348.025 69.4015 349.741 67.9643C351.907 66.1407 353.979 64.209 356.082 62.3236C357.15 61.3654 359.114 58.6919 360.336 58.4291C362.501 57.9655 362.13 59.0782 363.382 61.1336C364.511 62.9881 365.749 64.7035 366.986 66.4807C368.007 67.9334 371.316 71.6578 370.744 73.3423C370.976 73.4814 371.224 73.6359 371.456 73.775C370.141 73.8677 368.842 74.0532 367.558 74.3468C363.583 75.1968 359.671 76.5722 355.758 77.7467C346.787 80.4357 337.415 84.6546 328.012 85.1955C326.805 85.2728 324.934 87.1427 327.099 87.1427C327.61 87.1427 328.136 87.1427 328.646 87.1427C329.945 87.1427 332.327 85.1801 329.991 85.1801C329.481 85.1801 328.955 85.1801 328.445 85.1801C328.136 85.8292 327.842 86.4782 327.532 87.1273C339.348 86.4318 351.164 80.992 362.439 77.6539C365.548 76.7267 369.43 76.634 372.384 75.4286C372.956 75.1967 373.621 75.135 373.992 74.5477C375.662 72.0133 371.564 67.0989 370.187 65.1362C368.471 62.6636 366.089 56.0184 363.135 55.1375C360.475 54.3493 358.047 57.4401 356.5 58.9083C346.927 67.9489 335.93 75.3359 326.481 84.5001C326.264 84.7165 325.908 85.1801 326.264 85.4583C326.357 85.5355 326.45 85.6128 326.558 85.6901C327.517 86.4628 330.734 85.1028 329.79 84.3301Z" fill="#272525"/>
<path d="M74.3649 110.664C74.4268 111.793 74.3494 111.561 75.1382 112.364C76.128 111.854 77.1333 111.36 78.1231 110.85C73.6225 107.96 68.8745 105.688 64.4513 102.536C60.693 99.8466 56.9503 97.0958 53.1147 94.5304C49.3255 91.996 45.289 89.786 41.2987 87.5606C39.5511 86.587 36.9528 86.448 37.8962 83.6971C38.2055 82.7853 41.6699 81.039 42.4277 80.5136C46.5262 77.6083 51.398 74.3475 56.177 72.7094C59.2238 71.6739 59.4867 73.1111 61.2498 75.7847C62.75 78.0564 63.9718 80.5909 65.1163 83.0635C69.3076 92.1505 71.3336 101.948 75.5248 111.035C76.0662 112.194 79.0975 111.375 78.9892 110.108C78.9737 109.984 78.9738 109.861 78.9583 109.737C78.8655 108.609 75.3857 109.335 75.494 110.664C75.5094 110.788 75.5094 110.912 75.5248 111.035C76.6848 110.726 77.8293 110.417 78.9892 110.108C76.1899 104.035 74.5196 97.7603 72.3079 91.486C70.0035 84.9335 66.9722 78.9837 63.6161 72.9257C62.2551 70.4685 61.5746 68.784 58.4969 69.3867C55.945 69.8813 53.1302 72.1376 50.8567 73.2966C48.0573 74.7184 45.2735 76.1556 42.6288 77.8401C40.2625 79.3546 34.0297 82.0281 33.7204 85.088C33.442 87.8079 39.3964 89.7551 41.0667 90.7133C47.7635 94.5304 54.0581 98.7185 60.2909 103.231C65.1318 106.739 70.3592 109.335 75.3393 112.534C76.0816 113.013 79.2831 111.993 78.3242 111.02C78.1541 110.603 77.9685 110.17 77.7984 109.753C77.7675 108.624 74.2876 109.335 74.3649 110.664Z" fill="#272525"/>
<path d="M56.9722 230.696C42.1867 235.734 26.8909 234.189 11.7497 237.094C9.21333 237.588 2.17631 237.743 0.475051 240.2C-0.530236 241.653 0.274007 242.116 0.923577 243.384C2.53204 246.536 4.58903 249.179 5.77991 252.702C6.90892 256.056 7.10996 260.831 11.6106 260.46C15.7864 260.12 20.6581 255.639 23.9214 253.321C30.2006 248.854 36.8664 245.053 43.2075 240.695C46.5172 238.407 49.8578 236.368 53.6006 234.838C55.4565 234.08 56.9877 233.632 58.5961 232.396C60.1427 231.206 56.7092 231.144 55.8122 231.824C52.7345 234.173 47.7699 235.301 44.3829 237.434C39.8204 240.308 35.1343 243.136 30.6955 246.165C26.4269 249.086 22.2202 252.223 17.8124 254.912C15.508 256.319 12.7705 258.714 10.3733 255.701C8.98136 253.954 8.45547 249.473 7.57392 247.34C6.83155 245.547 6.02735 244.419 4.99113 242.858C3.15068 240.092 4.15595 240.587 7.04808 239.937C13.0334 238.593 19.0033 237.743 25.1123 237.295C36.2788 236.476 46.7183 236.043 57.4362 232.396C59.4467 231.747 59.0446 230.001 56.9722 230.696Z" fill="#272525"/>
<path d="M383.863 219.136C382.765 219.136 381.667 219.136 380.584 219.136C380.136 219.785 379.687 220.449 379.239 221.098C390.714 220.928 402.144 220.016 413.573 219.027C416.45 218.78 419.342 218.548 422.203 218.131C424.508 217.791 425.435 216.771 425.683 218.888C425.853 220.326 424.554 223.463 424.121 224.885C423.147 228.099 421.677 231.236 420.254 234.265C419.11 236.707 417.873 239.04 416.14 241.127C414.517 243.074 414.671 243.259 412.815 241.76C409.196 238.824 405.608 235.826 401.742 233.168C398.262 230.788 394.782 227.898 390.946 226.09C387.869 224.637 381.605 222.984 379.765 219.738C378.96 220.217 378.156 220.696 377.352 221.191C377.924 221.16 378.481 221.129 379.053 221.098C380.337 221.036 382.718 219.012 380.399 219.136C379.826 219.167 379.27 219.197 378.697 219.228C378.28 219.244 375.759 219.738 376.285 220.681C379.254 225.92 388.456 227.604 393.065 230.896C396.452 233.322 399.948 235.625 403.335 238.129C405.345 239.612 407.418 240.988 409.227 242.718C410.078 243.537 410.635 244.82 411.717 245.392C415.321 247.324 417.873 243.259 419.651 240.802C424.832 233.57 427.431 224.915 429.982 216.524C430.029 216.354 429.982 216.199 429.859 216.06C428.699 214.963 427.926 215.118 426.363 215.334C421.894 215.952 417.501 216.833 412.939 217.219C402.159 218.147 391.379 218.981 380.553 219.151C379.27 219.167 376.857 221.114 379.208 221.114C380.306 221.114 381.404 221.114 382.487 221.114C383.817 221.098 386.198 219.136 383.863 219.136Z" fill="#272525"/>
<path d="M81.5069 332.027C81.5997 331.934 81.708 331.841 81.8008 331.733C80.8728 331.548 79.9449 331.347 79.0169 331.161C70.8354 339.367 63.2262 348.779 56.6841 358.33C55.3849 360.23 52.4155 362.904 54.3797 365.006C55.8799 366.613 59.8082 366.412 61.8188 366.597C66.0719 366.999 70.3715 368.514 74.5937 368.715C76.2331 368.792 77.5012 368.715 78.5375 367.154C79.5427 365.639 79.2953 362.332 79.4345 360.617C79.682 357.727 79.7283 354.821 79.9448 351.932C80.1923 348.702 80.4707 345.456 80.8419 342.242C81.1821 339.244 80.9347 335.767 82.3421 333.124C81.2286 333.186 80.115 333.248 79.0014 333.31C78.986 333.433 78.986 333.557 78.9706 333.68C78.8623 335.071 82.3421 334.407 82.4349 333.248C82.4504 333.124 82.4503 333 82.4658 332.877C82.574 331.44 79.5273 332.274 79.1252 333.062C77.4703 336.169 77.6868 339.197 77.3775 342.69C77.0218 346.909 76.4651 351.113 76.2485 355.347C76.1557 357.031 76.6661 365.5 75.4752 366.412C74.4235 367.216 67.2318 365.006 66.01 364.851C64.1696 364.635 61.695 365.021 60.0092 364.295C56.916 362.966 57.7203 361.652 59.3287 359.272C60.5969 357.387 61.9116 355.548 63.2726 353.724C68.9176 346.121 75.1504 338.44 81.8317 331.749C83.2546 330.327 79.8676 330.373 79.0479 331.177C78.9551 331.27 78.8468 331.362 78.754 331.47C77.2847 332.877 80.6872 332.83 81.5069 332.027Z" fill="#272525"/>
<path d="M351.082 299.002C354.097 304.736 360.129 308.244 365.96 310.639C369.223 311.968 372.626 312.942 375.982 314.008C378.843 314.92 384.349 315.801 386.56 318.134C386.746 317.732 386.916 317.346 387.102 316.944C386.267 317.501 384.643 317.253 383.622 317.717C381.905 318.505 380.823 319.88 379.539 321.256C377.281 323.682 365.589 335.597 362.851 332.815C361.676 331.626 361.97 326.557 361.274 324.81C359.928 321.457 358.381 318.273 357.268 314.812C356.201 311.566 354.948 308.352 354.53 304.952C354.268 302.757 354.685 300.903 353.278 299.033C352.566 298.09 349.226 299.28 350.061 300.393C351.252 301.969 350.927 303.576 351.066 305.354C351.252 307.734 351.855 309.665 352.582 311.922C353.773 315.677 354.948 319.417 356.541 323.033C357.361 324.903 358.335 326.634 358.768 328.658C359.124 330.358 358.428 332.676 359.093 334.206C359.789 335.783 359.835 335.937 361.614 335.984C366.145 336.092 372.718 330.667 376.044 328.117C378.797 326 380.591 323.033 383.251 320.87C385.215 319.278 387.272 319.278 389.252 317.98C389.592 317.748 390.21 317.222 389.793 316.79C386.808 313.637 380.204 312.818 376.152 311.535C368.311 309.047 358.66 305.895 354.561 298.106C353.927 296.9 350.571 298.028 351.082 299.002Z" fill="#272525"/>
<path d="M112.204 176.298C114.725 188.615 117.493 200.886 120.649 213.063C122.149 218.859 123.835 224.607 125.381 230.403C126.417 234.266 127.268 239.505 129.99 242.627C130.547 243.26 132.65 242.673 132.557 241.746C132.403 240.216 131.8 239.011 130.964 237.743C130.485 237.002 127.902 237.867 128.49 238.779C129.34 240.062 129.743 240.989 129.897 242.457C130.748 242.163 131.598 241.87 132.465 241.576C129.526 238.207 128.799 232.35 127.655 228.193C126.062 222.336 124.376 216.525 122.876 210.652C119.891 199.031 117.277 187.332 114.864 175.587C114.663 174.676 112.003 175.325 112.204 176.298Z" fill="#272525"/>
<path d="M110.917 160.705C109.355 161.138 108.721 162.235 108.737 163.796C108.768 165.496 109.587 166.593 111.072 167.381C111.752 167.737 112.928 167.35 113.361 166.763C114.366 165.434 115.542 163.008 114.954 161.323C114.119 158.959 110.376 160.241 110.577 162.529C110.654 163.394 113.33 162.822 113.237 161.818C113.222 161.663 113.222 161.509 113.237 161.339C112.711 161.369 112.185 161.4 111.66 161.431C113.531 162.158 111.675 165.697 110.902 166.701C111.66 166.5 112.433 166.284 113.191 166.083C112.263 165.588 111.66 164.986 111.474 163.935C111.412 163.533 111.381 163.131 111.428 162.729C111.443 162.559 111.49 162.405 111.505 162.235C111.551 161.756 111.969 161.818 111.273 162.003C111.66 161.895 112.572 161.539 112.418 160.983C112.278 160.473 111.273 160.612 110.917 160.705Z" fill="#272525"/>
<path d="M142.978 170.44C141.678 173.283 142.684 174.396 143.596 177.147C144.679 180.361 145.097 183.993 145.87 187.3C147.494 194.239 148.777 201.147 149.69 208.225C150.541 214.855 151.314 221.484 151.994 228.13C152.505 233.137 153.154 239.117 155.861 243.475C156.294 244.171 158.289 243.491 158.428 242.795C158.707 241.374 158.66 240.168 158.598 238.7C158.567 237.866 155.892 238.391 155.938 239.411C156.046 240.647 156 241.884 155.768 243.12C156.619 242.888 157.469 242.656 158.335 242.44C155.567 237.989 155.072 231.653 154.577 226.584C153.958 220.202 153.17 213.865 152.365 207.514C151.577 201.317 150.602 195.197 149.149 189.108C148.406 186.017 147.695 182.911 147.014 179.805C146.272 176.482 144.107 173.453 145.653 170.084C145.994 169.311 143.364 169.574 142.978 170.44Z" fill="#272525"/>
<path d="M143.778 169.404C149.114 169.357 154.419 169.017 159.522 170.903C163.482 172.356 167.317 174.55 170.457 177.394C176.133 182.54 179.396 192.647 180.108 200.157C181.02 209.754 177.695 219.197 172.034 226.877C169.575 230.215 167.147 234.496 163.946 237.185C161.286 239.426 157.868 239.503 155.285 241.821C156.089 241.837 156.878 241.852 157.682 241.868C157.713 241.682 157.759 241.512 157.79 241.327C157.991 240.322 155.316 240.755 155.13 241.667C155.099 241.852 155.053 242.022 155.022 242.208C154.805 243.29 157.079 242.563 157.419 242.254C159.337 240.539 161.641 240.554 163.729 239.411C165.075 238.669 166.188 237.556 167.24 236.443C170.41 233.043 173.349 228.871 175.916 224.992C181.206 216.971 183.974 207.359 182.582 197.777C181.376 189.34 177.695 179.743 170.704 174.55C162.678 168.585 154.527 167.843 144.845 167.92C143.824 167.905 141.999 169.419 143.778 169.404Z" fill="#272525"/>
<path d="M217.732 173.563C211.592 173.037 205.545 173.022 199.39 172.697C197.302 172.589 193.621 171.801 192.043 173.918C191.193 175.077 191.533 176.607 191.564 177.936C191.657 181.46 191.44 184.999 191.641 188.522C192.043 195.276 192.399 201.936 192.492 208.705C192.585 215.644 191.61 222.536 191.564 229.491C191.549 232.489 190.574 237.789 192.6 240.463C195.075 243.708 201.122 242.256 204.54 242.256C207.664 242.256 210.819 242.441 213.943 242.395C216.279 242.364 218.428 241.514 220.733 241.452C221.723 241.421 223.548 239.891 221.769 239.953C219.99 239.999 218.444 240.417 216.665 240.664C214.144 241.004 211.623 240.772 209.087 240.772C205.267 240.757 195.678 242.256 194.41 237.867C193.374 234.328 194.193 228.594 194.271 225.086C194.379 220.296 195.137 215.551 195.168 210.76C195.26 200.19 194.224 189.743 194.224 179.188C194.224 177.102 193.698 174.552 196.42 174.042C197.982 173.748 200.256 174.273 201.864 174.273C206.875 174.273 211.701 174.66 216.681 175.077C217.717 175.154 219.511 173.717 217.732 173.563Z" fill="#272525"/>
<path d="M191.576 207.453C195.102 207.762 198.597 208.782 202.17 209.06C205.913 209.354 209.687 209.107 213.445 209.076C214.435 209.06 216.26 207.561 214.481 207.577C210.522 207.608 206.562 207.855 202.619 207.484C199.232 207.175 195.953 206.248 192.612 205.954C191.591 205.846 189.797 207.283 191.576 207.453Z" fill="#272525"/>
<path d="M235.41 230.14C234.838 230.882 234.838 230.912 234.451 231.762C235.333 231.654 236.23 231.546 237.111 231.422C237.9 219.863 237.173 208.025 237.173 196.435C237.173 189.619 236.926 182.789 237.173 175.989C237.281 173.145 237.498 170.317 237.931 167.505C238.039 166.809 238.209 164.414 238.627 163.687C239.277 162.575 238.256 162.853 239.323 163.626C241.163 164.97 242.633 168.416 243.824 170.333C245.664 173.284 247.396 176.282 249.067 179.327C251.819 184.334 254.402 189.449 257.001 194.534C259.676 199.773 262.367 205.012 264.857 210.359C266.992 214.933 268.724 219.77 271.585 223.958C272.405 223.618 273.224 223.263 274.059 222.923C273.889 222.737 273.719 222.536 273.549 222.351C272.946 221.671 270.394 222.629 271.075 223.386C271.245 223.572 271.415 223.773 271.585 223.958C272.157 224.607 274.678 223.819 274.059 222.923C270.208 217.282 267.95 210.405 264.966 204.285C261.934 198.088 258.764 191.968 255.578 185.849C252.794 180.486 249.917 175.154 246.731 169.993C245.2 167.52 242.354 160.488 238.72 160.906C235.673 161.261 235.627 165.604 235.286 167.829C234.343 174.088 234.42 180.44 234.498 186.745C234.575 193.73 234.544 200.715 234.544 207.701C234.544 215.675 235.023 223.804 234.482 231.747C234.405 232.952 236.817 232.102 237.142 231.407C237.405 230.99 237.668 230.588 237.916 230.171C238.611 229.259 235.951 229.46 235.41 230.14Z" fill="#272525"/>
<path d="M234.506 204.207C239.486 204.145 244.388 203.62 249.291 202.692C251.116 202.352 252.925 201.981 254.735 201.58C256.807 201.116 260.04 199.432 262.05 199.354C263.04 199.308 264.865 197.778 263.087 197.855C259.607 197.994 256.405 199.833 252.987 200.56C247.203 201.781 241.465 202.646 235.542 202.708C234.552 202.723 232.727 204.238 234.506 204.207Z" fill="#272525"/>
<path d="M310.673 169.93C305.6 161.832 297.543 157.289 288.835 158.123C281.69 158.803 273.493 163.764 273.369 173.052C273.184 185.879 285.124 191.148 293.46 195.429C300.899 199.262 308.307 204.362 309.204 214.654C310.364 227.991 299.77 238.36 288.309 233.755C287.258 233.338 284.845 234.481 286.747 235.239C301.904 241.328 319.597 224.436 309.823 206.17C304.44 196.109 293.367 194.332 285.294 188.475C278.52 183.56 273.075 173.917 279.092 165.526C287.041 154.461 301.486 160.472 307.688 170.363C308.291 171.352 311.261 170.888 310.673 169.93Z" fill="#272525"/>
<path d="M197.803 41.2448C195.313 39.5912 194.138 33.456 192.962 30.8597C191.215 27.0271 189.189 23.349 187.101 19.7019C185.167 16.3329 183.157 13.0103 181.301 9.61042C179.151 5.6851 182.383 6.53508 185.337 5.76238C187.487 5.20604 193.287 1.72888 194.88 2.42431C196.813 3.28973 196.566 9.30136 196.628 10.8931C196.999 21.3555 195.514 31.6788 195.282 42.1102C196.442 41.8784 197.586 41.662 198.746 41.4302C198.746 41.3066 198.746 41.1675 198.746 41.0439C198.746 39.9776 195.282 40.6266 195.282 41.9711C195.282 42.0948 195.282 42.2339 195.282 42.3575C195.282 43.4084 198.731 42.7593 198.746 41.6775C199.025 29.4379 201.623 16.6884 199.643 4.47972C199.303 2.34706 199.149 0.492541 196.906 0.0443745C195.669 -0.20289 194.571 0.647089 193.504 1.01799C189.854 2.26976 186.374 3.81519 182.538 4.47972C180.729 4.7888 177.373 4.7115 176.63 6.96779C175.872 9.27044 179.522 13.5512 180.45 15.1739C184.1 21.4946 187.998 27.7689 190.704 34.5687C191.88 37.505 192.266 41.0748 195.05 42.9293C195.978 43.5474 199.18 42.1566 197.803 41.2448Z" fill="#272525"/>
</svg>
