<?xml version="1.0" standalone="no"?>
<!DOCTYPE svg PUBLIC "-//W3C//DTD SVG 20010904//EN"
 "http://www.w3.org/TR/2001/REC-SVG-20010904/DTD/svg10.dtd">
<svg version="1.0" xmlns="http://www.w3.org/2000/svg"
 width="700.000000pt" height="700.000000pt" viewBox="0 0 700.000000 700.000000"
 preserveAspectRatio="xMidYMid meet">
<metadata>
Created by potrace 1.14, written by Peter Selinger 2001-2017
</metadata>
<g transform="translate(0.000000,700.000000) scale(0.100000,-0.100000)"
fill="#000000" stroke="none">
<path d="M1575 4379 c-306 -47 -527 -255 -612 -577 -31 -119 -43 -361 -23
-494 42 -290 191 -514 415 -623 114 -56 180 -70 345 -70 124 0 156 3 220 23
222 70 369 210 444 421 28 81 30 97 34 264 l4 177 -328 -2 -329 -3 -3 -92 -3
-93 231 0 230 0 0 -27 c-1 -56 -29 -162 -60 -223 -59 -118 -177 -209 -310
-240 -82 -20 -222 -15 -301 9 -183 57 -325 223 -376 438 -25 109 -25 357 0
466 65 275 275 457 529 457 209 0 368 -99 458 -284 l42 -86 105 0 105 0 -7 38
c-20 110 -111 261 -212 352 -68 61 -210 133 -303 154 -87 20 -222 27 -295 15z"/>
<path d="M3122 4369 c-159 -31 -274 -150 -302 -312 -25 -139 24 -275 151 -428
22 -26 39 -51 39 -55 0 -5 -26 -27 -57 -49 -90 -64 -195 -174 -231 -242 -93
-177 -40 -427 119 -553 111 -88 240 -125 409 -117 160 8 296 54 385 130 l41
35 59 -73 60 -74 118 -1 c64 0 117 3 117 6 0 3 -49 65 -108 137 -60 73 -111
137 -115 144 -4 6 8 34 27 63 52 79 88 198 94 313 l5 97 -97 0 -96 0 0 -47 c0
-79 -49 -253 -70 -253 -10 0 -358 423 -365 442 -2 8 40 45 97 88 111 83 177
156 217 240 22 47 26 69 26 150 0 81 -4 103 -26 150 -78 165 -284 251 -497
209z m218 -184 c40 -21 87 -79 101 -124 16 -53 4 -119 -31 -174 -40 -63 -227
-202 -248 -185 -24 20 -101 133 -122 179 -55 123 8 275 131 314 50 16 127 12
169 -10z m10 -1013 c227 -275 217 -249 120 -312 -107 -69 -267 -93 -376 -56
-160 53 -254 228 -195 362 12 27 34 67 49 88 26 39 180 169 193 164 4 -2 98
-113 209 -246z"/>
<path d="M4282 3498 l3 -863 98 -3 97 -3 0 661 c0 363 4 660 8 660 5 0 130
-296 279 -657 l270 -658 95 -3 95 -3 269 654 c148 360 274 656 279 658 7 3 11
-220 13 -653 l2 -658 95 0 95 0 0 865 0 866 -126 -3 -126 -3 -291 -712 c-161
-392 -297 -713 -303 -713 -14 0 3 -38 -339 798 l-259 632 -128 0 -128 0 2
-862z"/>
</g>
</svg>
