<svg width="500" height="500" viewBox="0 0 500 500" fill="none" xmlns="http://www.w3.org/2000/svg">
<style>
    @media (prefers-color-scheme: dark) {
      .fav-bg {fill: #fff;}
      .fav-text {fill: #000;}
    }
  </style>
<rect class="fav-bg" width="500" height="500" fill="black"/>
<path class="fav-text" d="M179.568 209C177.224 201.827 174.135 195.399 170.3 189.717C166.536 183.964 162.026 179.064 156.77 175.016C151.585 170.967 145.69 167.878 139.085 165.747C132.48 163.616 125.236 162.551 117.352 162.551C104.426 162.551 92.6719 165.889 82.0895 172.565C71.5071 179.241 63.0909 189.078 56.8409 202.075C50.5909 215.072 47.4659 231.017 47.4659 249.909C47.4659 268.801 50.6264 284.746 56.9474 297.743C63.2685 310.74 71.8267 320.577 82.6222 327.253C93.4176 333.929 105.563 337.267 119.057 337.267C131.557 337.267 142.565 334.604 152.082 329.277C161.67 323.879 169.128 316.28 174.455 306.479C179.852 296.607 182.551 284.994 182.551 271.642L190.648 273.347H125.023V249.909H208.119V273.347C208.119 291.315 204.284 306.94 196.614 320.222C189.014 333.503 178.503 343.801 165.08 351.116C151.727 358.361 136.386 361.983 119.057 361.983C99.7386 361.983 82.7642 357.438 68.1335 348.347C53.5739 339.256 42.2102 326.33 34.0426 309.568C25.946 292.807 21.8977 272.92 21.8977 249.909C21.8977 232.651 24.206 217.132 28.8224 203.354C33.5099 189.504 40.1151 177.714 48.6378 167.984C57.1605 158.254 67.2457 150.797 78.8935 145.612C90.5412 140.428 103.361 137.835 117.352 137.835C128.858 137.835 139.582 139.575 149.526 143.055C159.54 146.464 168.453 151.33 176.266 157.651C184.149 163.901 190.719 171.393 195.974 180.129C201.23 188.794 204.852 198.418 206.841 209H179.568ZM253.37 140.818H284.904L359.051 321.926H361.608L435.756 140.818H467.29V359H442.574V193.233H440.444L372.262 359H348.398L280.216 193.233H278.086V359H253.37V140.818Z" fill="white"/>
</svg>
