<svg width="255" height="64" viewBox="0 0 255 64" fill="none" xmlns="http://www.w3.org/2000/svg">
<path d="M216.687 27.5644C216.599 27.1118 216.51 26.6593 216.466 26.1614C216.245 23.5814 215.18 21.3636 213.76 19.2815C212.962 18.15 211.897 17.29 210.789 16.4753C209.591 15.5248 208.172 15.027 206.797 14.4838C206.53 14.3933 207.107 13.1712 208.438 11.4966C208.659 11.225 208.659 10.9534 208.482 10.6818C207.728 9.32399 206.707 8.28297 205.201 7.7851C203.071 7.0609 201.253 7.423 199.7 9.09769C199.08 9.77662 198.546 10.5008 198.015 11.225C197.882 11.406 197.792 11.6776 197.527 11.5871C197.261 11.5418 197.35 11.2702 197.35 11.0892C197.171 9.1882 196.773 7.33247 196.196 5.52201C196.019 4.93361 195.886 4.84308 195.309 4.84308C194.467 4.79783 193.757 5.11465 193.136 5.6578C192.604 6.15567 192.117 6.74407 191.45 7.10617C191.006 7.37774 190.963 7.51353 191.317 7.96614C191.938 8.82612 192.471 9.73135 192.915 10.7271C193.18 11.3608 193.269 11.9944 193.313 12.6734C193.313 12.8544 193.313 13.0807 193.092 13.2618C192.248 12.8091 191.317 12.5828 190.386 12.4923C189.366 12.4018 188.346 12.447 187.37 12.7186C186.306 13.0354 185.462 13.6238 184.664 14.348C183.822 15.1175 183.245 16.0226 182.891 17.109C182.668 17.7879 182.758 17.969 183.423 18.2406C183.512 18.2858 183.6 18.2858 183.689 18.3311C184.398 18.6479 185.197 18.9194 186.039 19.1006C185.862 19.3721 185.685 19.553 185.508 19.6889C184.798 20.3678 184.087 21.0468 183.466 21.8162C182.27 23.3098 181.427 24.9393 180.939 26.795C180.716 27.6097 180.629 28.4697 180.495 29.3297C180.185 31.4116 180.229 33.4484 180.672 35.4852C181.249 37.9746 182.402 40.1924 183.91 42.2745C184.931 43.7228 186.173 44.8996 187.681 45.8954C188.923 46.7102 190.298 47.2532 191.717 47.6606C192.737 47.9322 193.802 48.1585 194.865 48.43C195.309 48.5206 195.665 48.7017 195.709 49.1994C195.752 49.5164 195.975 49.6974 196.24 49.8332C196.507 49.969 196.773 50.1047 197.084 50.1047C198.546 50.2406 200.011 50.1953 201.474 49.7426C202.051 49.5617 202.584 49.4711 203.159 49.5164C203.87 49.6068 204.49 49.3806 205.067 48.9732C205.422 48.747 205.599 48.43 205.599 48.0226C205.599 47.4343 205.909 47.1628 206.397 46.9364C207.151 46.5743 207.861 46.2122 208.482 45.669C210.078 44.3113 211.72 43.0439 212.918 41.2788C213.76 40.0567 214.559 38.8346 215.135 37.4767C215.889 35.7116 216.422 33.8558 216.82 31.9548C216.998 30.5065 216.954 29.058 216.687 27.5644ZM187.592 38.4726C187.504 38.5177 187.458 38.563 187.37 38.563C187.237 38.563 187.104 38.5177 187.06 38.4726C186.927 38.4273 186.837 38.3367 186.75 38.2914C186.173 37.8388 185.818 37.2958 185.596 36.8431C184.841 35.4852 184.354 33.9463 184.087 32.2716C183.999 31.5022 183.91 30.7327 184.133 29.918C184.221 29.4202 184.487 28.9676 184.887 28.6959C185.241 28.4244 185.508 28.4697 185.64 28.5602C185.773 28.6055 185.995 28.7865 185.995 29.2391C185.995 29.5106 186.039 29.8727 185.995 30.2348C185.862 31.7286 186.083 33.2222 186.616 34.8516C186.704 35.1231 186.794 35.4399 186.883 35.7116C187.104 36.4358 187.37 37.2052 187.681 37.9294C187.725 38.0199 187.858 38.2914 187.592 38.4726ZM189.056 23.2193C188.877 23.5361 188.7 23.8078 188.523 23.9887C188.125 24.3961 187.725 24.8487 187.414 25.3466L187.325 25.4823C187.06 25.8446 186.837 26.2066 186.527 26.5234C186.306 26.795 186.083 26.8402 185.95 26.8402H185.862C185.64 26.795 185.418 26.5687 185.329 26.2519C185.152 25.754 185.285 25.3014 185.418 24.894C185.64 24.0793 186.35 22.993 186.927 22.4951C187.37 22.0878 187.858 21.9068 188.435 21.9519C188.746 21.9972 189.011 22.133 189.144 22.3593C189.233 22.5857 189.189 22.9025 189.056 23.2193Z" fill="#222227"/>
<path d="M253.06 41.5956C252.262 40.8715 251.419 40.102 250.665 39.3324C248.448 37.0694 246.406 34.6252 244.279 32.3169C242.593 30.4612 241.085 28.4244 239.399 26.5235C239.222 26.3423 239.089 26.0708 238.956 25.8897C238.645 25.5276 238.689 25.1655 238.912 24.7582C239.62 23.491 240.287 22.2236 241.041 21.0015C244.145 15.8869 247.16 10.7724 250.354 5.70307C250.798 5.02415 250.798 4.88835 250.177 4.43575C248.358 3.03263 246.452 1.81056 244.366 0.81481C243.789 0.54324 243.214 0.27167 242.593 0.135885C242.237 0.0453618 241.972 0.135885 241.75 0.362194C241.616 0.54324 241.483 0.769549 241.351 0.950595C240.818 1.90109 240.331 2.85159 239.798 3.80208C238.114 6.60831 236.428 9.36926 234.743 12.1302L233.811 13.7596C233.234 14.8007 232.657 15.7964 232.036 16.8374C231.815 17.2447 231.726 17.2447 231.416 16.8827C230.839 16.2491 230.351 15.5701 229.863 14.8912C227.955 12.266 226.226 9.59557 224.274 7.01567C223.876 6.47251 223.786 6.42725 223.121 6.69883C221.436 7.3325 219.928 8.32824 218.552 9.45979C217.888 10.0029 217.177 10.5461 216.602 11.2703C215.981 12.0397 216.113 12.3113 216.513 12.9449C218.065 15.5701 220.061 17.9238 221.746 20.4583C223.077 22.4046 224.453 24.2604 225.782 26.1614C225.915 26.3423 226.049 26.5235 226.049 26.7497C226.049 26.9761 225.871 27.1571 225.782 27.3382C224.453 29.6918 223.032 32.0454 221.79 34.4443C220.548 36.8431 219.219 39.1967 217.932 41.5503C216.602 43.9492 215.315 46.3028 213.985 48.6564C212.654 51.01 211.279 53.3183 210.081 55.7172C209.727 56.4414 209.727 56.4867 210.258 57.1203C211.456 58.4782 212.787 59.7455 214.296 60.7865C215.492 61.6465 216.69 62.4612 217.976 63.0948C218.686 63.4116 218.952 63.3212 219.307 62.6422C220.948 59.3835 222.678 56.1699 224.363 52.911C225.338 51.01 226.315 49.1091 227.247 47.1628L229.509 42.546C230.44 40.6451 231.372 38.7894 232.391 36.9788C232.791 36.2999 232.791 36.2999 233.278 36.8884L233.322 36.9337C235.718 39.9209 238.114 42.863 240.597 45.8049C241.616 47.027 242.637 48.2038 243.789 49.3353C244.41 49.9238 244.633 49.9238 245.343 49.5164C246.052 49.0638 246.717 48.6111 247.383 48.1132C249.156 46.7555 250.931 45.3975 252.527 43.7681C252.794 43.4966 253.015 43.2251 253.194 42.9081C253.592 42.2745 253.592 42.0934 253.06 41.5956ZM220.461 14.4386C220.371 14.4838 220.283 14.4838 220.194 14.4838C220.017 14.4838 219.84 14.3933 219.75 14.2575L219.529 13.9407C219.129 13.4428 218.73 12.8997 218.419 12.3113C218.288 12.0397 218.331 11.7229 218.598 11.4966C218.863 11.2703 219.173 11.3155 219.396 11.5871C219.884 12.1302 220.283 12.8092 220.682 13.3976L220.771 13.4881C220.815 13.5786 220.815 13.6691 220.859 13.7144V13.8049C220.815 14.167 220.682 14.348 220.461 14.4386ZM228.222 24.1699C228.134 24.3961 227.911 24.4867 227.69 24.4867C227.38 24.4867 227.203 24.2604 227.069 24.1246C226.138 22.9931 225.338 21.9068 224.363 20.5489C223.299 19.0553 222.457 17.8332 221.79 16.6564C221.657 16.4753 221.392 16.0227 221.88 15.7059C222.19 15.4796 222.5 15.5701 222.767 15.9322C223.342 16.6111 223.832 17.3353 224.319 18.0595C224.584 18.4668 224.896 18.8742 225.161 19.2815C225.782 20.1415 226.359 20.9563 226.98 21.8163C227.38 22.4046 227.778 22.9478 228.222 23.5361C228.266 23.6719 228.355 23.8983 228.222 24.1699ZM177.969 36.4811C176.727 32.7695 174.554 29.8727 171.006 28.1982C170.473 27.9265 170.473 27.8361 170.917 27.4739C172.825 26.0255 173.889 23.9887 174.643 21.771C175.175 20.1415 175.485 18.4668 175.219 16.747C174.687 13.307 173.09 10.5913 170.162 8.7356C167.856 7.24197 165.329 6.33674 162.668 5.74834C161.203 5.43151 159.741 5.29571 158.232 5.15994C156.635 5.02415 154.994 5.15994 153.397 5.34098C152.51 5.43151 151.934 5.83885 151.712 6.78935C151.401 8.10194 151.135 9.41453 150.781 10.7271C149.938 14.0312 149.406 17.3806 149.006 20.7751C148.873 21.9068 148.829 23.0836 148.74 24.2604C148.696 24.8487 148.696 24.8487 148.164 24.9393C147.232 25.0751 146.345 25.1655 145.414 25.2561C144.66 25.3467 144.571 25.4825 144.394 26.2519C144.305 26.7497 143.64 30.5971 144.083 34.0822C144.172 34.8969 144.349 34.9873 145.192 34.8969C145.946 34.8063 146.7 34.6705 147.454 34.5348C147.942 34.4443 147.942 34.4895 147.898 34.9422C147.454 38.6988 147.188 42.5007 147.099 46.0311V50.9195C147.099 51.6436 147.41 52.2321 148.031 52.5942C148.696 53.0468 149.406 53.4542 150.16 53.7257C152.111 54.4046 154.063 54.9478 156.103 55.0383C158.63 55.174 161.159 55.1287 163.687 54.8119C166.17 54.4951 168.522 53.8163 170.739 52.6847C172.204 51.9153 173.579 50.9647 174.687 49.6521C176.594 47.3438 177.792 44.7639 178.235 41.7766C178.502 40.0115 178.546 38.2009 177.969 36.4811ZM146.833 29.6465C146.833 30.0086 146.611 30.2348 146.301 30.2801H146.168C145.857 30.2801 145.636 30.0991 145.547 29.7823C145.502 29.5107 145.502 29.2391 145.502 29.058V28.7865C145.502 28.2435 145.502 27.8361 145.591 27.4287C145.724 26.8403 146.079 26.795 146.301 26.795C146.478 26.795 146.877 26.9308 146.877 27.5644C146.877 28.2435 146.877 28.9223 146.833 29.6465ZM153.53 12.9449C153.131 15.0722 152.776 17.3806 152.422 19.9604C152.333 20.5036 152.289 21.0015 152.2 21.5446C152.155 22.0425 152.067 22.4951 152.022 22.9931C151.978 23.2646 151.934 23.6267 151.49 23.7625H151.313C151.18 23.7625 151.047 23.7172 150.958 23.6267C150.825 23.5361 150.692 23.3099 150.692 22.8572L150.736 22.2236C150.958 19.7342 151.18 17.1543 151.668 14.6649C151.801 14.0312 151.934 13.307 152.244 12.5828C152.422 12.1755 152.688 12.0397 152.998 12.1302C153.264 12.1755 153.619 12.3565 153.53 12.9449ZM154.684 7.9209C154.506 8.78087 154.329 9.55031 154.107 10.2745C154.018 10.5913 153.797 10.7271 153.53 10.7271H153.397C153.131 10.6819 152.865 10.5008 152.909 9.9124L152.954 9.59557C153.043 8.96191 153.176 8.28298 153.442 7.60407C153.575 7.24197 153.885 7.10618 154.196 7.19671C154.595 7.28723 154.772 7.5588 154.684 7.9209ZM158.676 16.9732C158.764 16.1132 158.897 15.2533 159.074 14.3933C159.207 13.6239 159.341 13.5333 160.051 13.5786C161.337 13.7144 162.622 13.8954 163.864 14.3933C166.127 15.2985 167.324 17.4259 167.014 19.87C166.747 22.2236 165.462 23.7172 163.376 24.5319C161.914 25.1203 160.361 25.3467 158.764 25.3467C158.055 25.3467 158.055 25.3014 158.01 24.6225V23.7625C158.188 21.4995 158.365 19.2363 158.676 16.9732ZM167.281 42.9987C165.86 44.4019 164.131 45.307 162.18 45.6691C160.672 45.986 159.12 46.0313 157.567 45.9407C156.946 45.8955 156.857 45.8049 156.857 45.126C156.857 43.6324 157.034 37.0241 157.168 35.2137C157.255 34.1727 157.211 34.1727 158.276 33.9916C160.405 33.6748 162.535 33.5843 164.618 34.1727C166.083 34.5799 167.324 35.3495 168.079 36.7526C169.143 38.6535 168.833 41.4145 167.281 42.9987ZM61.541 53.5447C59.7669 51.5079 58.2589 49.29 56.7065 47.0723C54.0009 43.1798 51.8719 38.9703 49.6986 34.8063C49.4768 34.399 49.3438 33.9463 49.1663 33.539C48.989 33.0411 49.0332 33.0411 49.4768 32.8601C49.8759 32.679 50.3195 32.5886 50.7187 32.3622C53.646 30.8233 56.9726 28.0171 57.283 23.0836C57.4161 21.0468 57.1057 19.01 56.2629 17.1091C55.9525 16.43 55.6863 15.7059 55.1983 15.1628C54.5774 14.4386 53.9566 13.6691 53.3355 12.9449C52.5815 12.085 51.6945 11.406 50.6743 10.9082C48.2348 9.59557 45.5736 9.0977 42.868 9.05243C40.2512 9.05243 37.5457 9.00717 34.7957 9.18823C33.4208 9.27874 32.0458 9.45979 30.7152 9.73136C30.0056 9.86714 29.8281 10.0482 29.8281 10.8176C29.8281 12.0397 29.8725 13.2165 29.9169 14.4386C29.9612 15.1628 30.0498 15.9322 30.1829 16.6564C30.2717 17.2447 30.4048 17.3353 30.9813 17.3353C31.4692 17.3353 31.9572 17.3353 32.4893 17.3806C33.2877 17.4259 33.2877 17.4259 33.2877 18.2859C33.2877 18.3764 33.1104 21.8163 33.066 23.491C33.0216 24.4867 32.5781 30.0991 32.5781 31.9095C32.5781 34.5348 32.4006 37.1147 32.4006 39.7398C32.4006 40.7809 32.0901 46.5291 32.1789 48.3849C32.2233 49.5164 32.2233 50.6479 32.4006 51.7795C32.4893 52.3678 32.5781 52.4583 33.1546 52.5489C34.2636 52.73 35.4168 52.6847 36.5699 52.7751C37.5013 52.8204 38.4771 52.7751 39.4085 52.73C39.9851 52.6847 40.1625 52.5036 40.1625 51.9153V51.4627C40.1625 49.6521 40.1181 47.8417 40.2068 46.0311C40.2956 43.0439 40.5173 40.0567 40.606 37.0241C40.606 36.7979 40.606 36.3452 40.7392 36.2999C40.8721 36.2547 41.094 36.7979 41.2271 37.0694C41.8923 38.4726 42.6463 39.8756 43.4003 41.2335C45.2632 44.4471 47.2591 47.5249 49.2107 50.6932C50.4526 52.6395 51.8275 54.4951 53.2469 56.3055C53.8678 57.1203 54.4887 57.8897 55.2427 58.5687C55.6863 58.9761 55.8194 58.8403 56.3515 58.5687C57.4161 57.9803 60.0773 56.1246 61.3636 54.9931C62.0733 54.3593 62.1176 54.2236 61.541 53.5447ZM32.7112 14.167C32.7112 14.5291 32.4893 14.8007 32.1345 14.8459H32.0458C31.7353 14.8459 31.5136 14.6196 31.4249 14.3028C31.2918 13.5786 31.1588 12.8092 31.2918 12.0397V11.9039C31.2918 11.8134 31.2918 11.7681 31.3361 11.6776C31.4249 11.2703 31.6909 11.044 32.0901 11.0892C32.4893 11.1345 32.7112 11.4513 32.6668 11.8587C32.6224 12.3113 32.6668 12.8092 32.6668 13.2618V13.6691C32.7112 13.8502 32.7112 14.0312 32.7112 14.167ZM35.461 34.7611V35.4852H35.3724V35.7116C35.3724 36.0737 35.3724 36.4358 35.328 36.7979C35.328 37.3411 35.0176 37.4767 34.7957 37.4767H34.7513C34.3965 37.4767 34.1748 37.2505 34.1748 36.8431C34.1304 35.9831 34.1304 35.0779 34.2192 33.9011V33.8105C34.2192 33.7201 34.2192 33.6295 34.2636 33.539C34.3078 33.1316 34.574 32.9054 34.8844 32.9507C35.2836 32.9507 35.5053 33.2222 35.5053 33.6295C35.5053 33.9916 35.5053 34.3537 35.461 34.7611ZM35.9489 24.894C35.9045 26.1161 35.8159 27.3382 35.7272 28.5603C35.6828 29.3297 35.6385 30.1444 35.5941 30.9139C35.5941 31.1401 35.5497 31.638 35.0176 31.6833H34.9732C34.3965 31.6833 34.3521 31.1401 34.3521 30.9139C34.2192 29.4203 34.3078 27.9718 34.4409 26.5687C34.4409 26.2971 34.4853 25.9803 34.4853 25.7087V25.3014L34.5296 24.9846C34.6627 23.2646 34.7513 21.4995 34.9732 19.7795C35.0176 19.3268 35.1062 18.8742 35.1949 18.4668C35.2836 18.0595 35.5497 17.8332 35.9045 17.8785C36.082 17.8785 36.4812 18.0142 36.4368 18.6479C36.1708 20.6847 36.0376 22.8119 35.9489 24.894ZM47.6139 25.0299C46.7712 25.6182 45.8398 25.7993 44.864 25.935C44.5092 25.9803 44.11 25.9803 43.7108 26.0255C43.1343 26.0708 42.5576 26.0255 42.0253 25.8897C41.4932 25.7993 41.4044 25.7087 41.4044 25.1203C41.4932 23.8078 41.6705 22.4951 41.8923 21.1825C42.0697 20.0057 42.2915 18.7836 42.5132 17.6068C42.6463 16.9279 42.6463 16.9732 43.2672 16.9732C44.4204 17.0185 45.5292 17.3353 46.5495 17.8332C48.2792 18.6027 49.2107 19.7342 49.2551 22.0425C49.2994 23.3551 48.634 24.3055 47.6139 25.0299ZM120.531 44.4019C120.443 43.4966 120.354 42.6366 120.043 41.7766C119.866 41.2788 119.511 40.9619 118.979 40.9619C117.826 40.9166 116.673 40.8262 115.475 40.8262C113.036 40.8262 110.64 41.0071 108.245 41.3692C105.895 41.7313 103.544 42.0483 101.282 42.7271C101.149 42.7724 100.927 42.863 100.883 42.7271C100.838 42.5913 101.104 42.2745 101.238 42.0483C103.5 38.5179 106.072 35.2137 108.644 31.9095C110.64 29.2844 112.769 26.7044 115.031 24.3055C115.253 24.0793 115.475 23.8078 115.475 23.4457C115.564 20.5489 115.253 17.6521 114.987 14.7554C114.943 14.2123 114.765 14.0765 114.189 14.0765C113.967 14.0765 113.701 14.0765 113.479 14.0312C108.556 13.986 95.0723 14.2123 93.2982 14.3933C91.7458 14.5744 90.2378 14.7101 88.6854 14.8912C88.0645 14.9817 87.887 15.1628 87.887 15.7964C87.8427 16.2038 87.8427 16.6111 87.8427 17.0185C87.887 18.9195 87.887 20.8204 88.375 22.7215C88.5523 23.4457 88.7298 23.5814 89.3951 23.491C90.1491 23.4004 90.9031 23.3551 91.6571 23.2193C93.653 22.9478 95.6489 22.7215 97.6449 22.5857L103.233 22.1783C103.899 22.1331 105.229 21.9519 105.318 22.1331C105.407 22.2689 105.008 22.7215 104.83 22.9478C103.854 24.2151 102.834 25.3919 101.947 26.7044C99.9069 29.6465 97.9553 32.5886 95.915 35.4852C93.9191 38.2462 92.145 41.1883 90.0603 43.8587C89.8386 44.1302 89.6169 44.4471 89.4394 44.7639C89.3063 44.9902 89.2621 45.2166 89.3951 45.5334C90.2378 47.887 91.0805 50.2859 91.8789 52.6395C91.9675 52.9563 92.1006 53.2278 92.1894 53.4995C92.2781 53.8163 92.4998 53.9068 92.8103 53.8163L93.3426 53.6804C94.3626 53.4089 95.3385 53.1374 96.3586 52.8657C100.173 51.9153 104.076 51.2363 107.935 50.5574C111.661 49.9238 115.431 49.5164 119.245 49.5164C120.487 49.5164 120.62 49.4259 120.664 48.1132C120.753 46.9364 120.62 45.6691 120.531 44.4019ZM90.7701 19.191C90.7701 19.5532 90.5482 19.8247 90.1934 19.87H90.1047C89.7942 19.87 89.5725 19.6436 89.4838 19.3268C89.3507 18.6027 89.2177 17.8332 89.3507 17.0638V16.9279C89.3507 16.8374 89.3507 16.7923 89.3951 16.7017C89.4838 16.2943 89.7499 16.0679 90.1491 16.1132C90.5482 16.1585 90.7701 16.4753 90.7257 16.8827C90.6814 17.3353 90.7257 17.8332 90.7257 18.2859V18.6932C90.7701 18.8742 90.7701 19.0553 90.7701 19.191ZM105.362 24.8487L105.496 24.6225C105.806 24.034 106.161 23.4457 106.649 22.9478C106.87 22.7215 107.181 22.6763 107.447 22.8119C107.669 22.9478 107.802 23.1287 107.802 23.4457C107.802 23.7172 107.669 23.8983 107.536 24.034C107.491 24.0793 107.447 24.1246 107.403 24.2151C107.181 24.5772 106.915 24.9393 106.649 25.3014L106.56 25.4372C106.471 25.5729 106.294 25.7993 105.939 25.7993H105.85C105.628 25.7993 105.451 25.6635 105.318 25.4372C105.229 25.3014 105.229 25.0751 105.362 24.8487ZM99.2416 36.1641C98.9754 36.5715 98.7537 36.9337 98.4876 37.3411C98.3989 37.522 98.2214 37.7483 97.911 37.7483H97.8666C97.6449 37.7483 97.4674 37.6579 97.3344 37.4315C97.2013 37.2052 97.2013 36.9337 97.3344 36.7073L97.7336 36.0737C98.0884 35.5305 98.3989 34.9873 98.7093 34.4443C99.5964 32.9054 100.661 31.3665 101.858 29.6918L102.213 29.1939C102.701 28.515 103.233 27.7908 103.81 27.1571C104.076 26.8855 104.342 26.795 104.608 26.9308C104.874 27.0214 104.963 27.2476 105.008 27.5644V27.655C104.963 27.9265 104.786 28.1529 104.653 28.3339L104.52 28.4697C104.032 29.1486 103.588 29.8276 103.1 30.5065C102.346 31.5927 101.592 32.6337 100.838 33.7201L99.2416 36.1641Z" fill="#222227"/>
<path d="M87.3055 33.9916C87.2167 33.539 87.128 33.0864 86.9949 32.6337C86.5957 31.1401 86.2409 29.6465 85.7531 28.1982C85.5312 27.4739 85.2652 27.3382 84.5555 27.5192C83.8901 27.655 83.2692 27.8361 82.604 27.9718C81.3177 28.2886 81.362 28.6508 80.9629 26.9761C80.2532 24.034 78.1685 14.5291 77.6806 11.7682C77.592 11.1345 77.3258 11.044 77.0153 10.9534C75.729 10.6366 74.5758 10.4103 73.3341 10.2293C71.7817 9.95768 70.1849 9.73138 68.8099 9.55034C67.7898 9.50507 67.6123 9.64085 67.2575 10.365C65.7495 13.6239 64.8182 17.0638 63.7092 20.4584C62.556 24.0793 61.3142 27.7003 60.3384 31.3665C59.407 35.0326 58.5643 38.6988 57.8103 42.3651C57.544 43.5872 57.5884 43.7228 58.6972 44.2208C60.7376 45.1713 62.8666 45.9408 65.0399 46.5291C65.7495 46.7102 65.7939 46.6649 66.0156 45.986C66.4591 44.4923 66.7254 42.9987 67.0802 41.4598C67.435 39.7851 67.435 39.7851 69.0318 39.242C70.6285 38.6988 72.1809 38.2462 73.7775 37.7483C74.4429 37.522 74.4429 37.5673 74.6646 38.2462C75.0638 39.7851 75.463 41.3692 75.9509 42.9081C76.4388 44.6281 77.0153 46.3934 77.4589 48.1132C77.6362 48.7923 77.7693 49.4712 77.9912 50.15C78.2129 50.9195 78.3017 50.9648 79.0557 50.7836C81.1846 50.3312 83.2692 49.6974 85.3539 48.9732C85.6644 48.8827 85.9304 48.747 86.1965 48.5659C86.7288 48.2038 86.7732 48.068 86.6401 47.4344C86.2409 45.7596 85.6644 44.1302 85.1764 42.5008C84.6885 40.7356 84.2893 38.9251 83.7572 37.16C83.6241 36.7526 83.5353 36.3 83.4023 35.8926C83.3136 35.6664 83.4023 35.5305 83.6241 35.4852C83.7572 35.4852 83.8458 35.44 83.9789 35.44C84.866 35.259 85.7973 35.1232 86.6844 34.9422C87.3053 34.9422 87.4384 34.7158 87.3055 33.9916ZM68.189 16.8374L67.7454 18.1048C67.3463 19.2363 66.9471 20.4584 66.5479 21.5899C66.3262 22.3593 66.0599 23.0836 65.8382 23.8531C65.7051 24.2604 65.5722 24.7129 65.4834 25.1203C65.0842 26.3876 64.7294 27.655 64.3302 28.9224L64.0642 29.7371C63.9311 30.1897 63.6206 30.2801 63.4431 30.2801H63.2658C62.9108 30.1897 62.7335 29.918 62.7335 29.556V29.5107C62.911 28.5603 63.1771 27.655 63.4431 26.8403C63.665 26.1161 63.8867 25.3467 64.1084 24.6225C64.5076 23.3552 64.9068 21.9972 65.3059 20.73C65.7495 19.3721 66.2818 18.0142 66.9914 16.3849C67.2575 15.8417 67.6567 15.9322 67.7898 15.9775C68.189 16.068 68.3221 16.43 68.189 16.8374ZM68.4551 14.4386C68.3663 14.4386 68.2777 14.4386 68.189 14.3933C67.8342 14.2575 67.6567 13.9407 67.7898 13.5334L67.8342 13.3976C68.0115 12.7639 68.189 12.1302 68.4994 11.5418C68.6769 11.1797 68.9874 11.044 69.2978 11.1345C69.6083 11.225 69.7858 11.4966 69.7858 11.8587V11.9492L69.7414 12.085C69.697 12.1755 69.6526 12.3113 69.6083 12.4471L69.5195 12.6734C69.3422 13.126 69.2091 13.5334 69.0318 13.986C68.943 14.2576 68.7211 14.4386 68.4551 14.4386ZM72.4026 31.2307C71.2938 31.5022 70.3179 31.7739 69.2091 32.0907C68.9874 32.136 68.8986 32.1812 68.9874 31.5475C69.5195 28.6056 70.6727 23.491 70.7171 23.3552C70.7615 23.2193 70.8502 23.0836 71.0277 23.1288C71.1606 23.1288 71.205 23.2646 71.205 23.4004C71.4711 24.2152 71.6486 25.0752 71.8703 25.935C72.2251 27.4288 72.5801 28.9224 72.8905 30.4612C73.0235 31.0496 72.9791 31.0948 72.4026 31.2307ZM145.763 11.2703C144.255 9.91243 142.614 8.82614 140.796 7.92091C140.619 7.83038 140.441 7.78512 140.264 7.69461C139.51 7.46829 139.243 7.55882 138.889 8.28301C138.223 9.50507 137.647 10.7724 136.981 12.0397C135.473 14.8912 133.788 17.6521 132.058 20.3227C131.703 20.8657 131.482 20.911 131.127 20.3227C129.131 17.1996 127.091 14.1218 125.228 10.9082C123.587 8.01144 121.946 5.11469 120.482 2.12742C120.172 1.49376 120.038 1.44849 119.418 1.72006C117.466 2.58003 115.514 3.53053 113.74 4.70733C113.341 4.9789 112.986 5.20522 112.631 5.52205C112.232 5.83888 112.188 6.06518 112.41 6.51779C112.587 6.92515 112.809 7.28725 113.031 7.64934C114.317 9.91243 115.647 12.1302 116.978 14.3933C119.24 18.3312 121.502 22.2236 124.119 25.8899C125.405 27.7003 126.736 29.5107 128.022 31.3212C128.244 31.5928 128.333 31.9096 128.333 32.2716C128.244 37.4315 128.776 44.764 129.042 47.2532C129.264 49.29 129.574 51.3268 130.062 53.3183C130.24 54.1331 130.24 54.0878 131.038 54.1331C132.324 54.2236 133.611 53.9972 134.853 53.771C136.006 53.5899 137.203 53.3636 138.312 52.911C139.288 52.5036 139.421 52.2774 139.199 51.2363C138.534 48.2038 137.203 37.6579 136.937 35.44C136.715 33.358 136.582 31.3212 136.494 29.2392C136.494 28.8771 136.582 28.5603 136.804 28.2435C138.623 25.5729 140.441 22.9478 142.127 20.1868C143.635 17.7427 144.965 15.208 146.03 12.5376C146.34 11.9039 146.34 11.7682 145.763 11.2703ZM117.821 10.1387C117.732 10.2293 117.599 10.2293 117.51 10.2293C117.333 10.2293 117.155 10.1387 117.022 9.95768C116.313 9.14298 115.692 8.19248 115.204 7.15146C115.16 7.06094 115.159 7.01568 115.159 6.97042V6.87989C115.204 6.47254 115.426 6.33675 115.603 6.29149C115.869 6.20098 116.135 6.33675 116.313 6.56306C116.756 7.19672 117.155 7.83038 117.555 8.41878C117.732 8.73562 117.909 9.05245 118.042 9.27877C118.176 9.64085 118.087 9.95768 117.821 10.1387ZM125.095 21.9068C124.962 22.0878 124.784 22.2236 124.518 22.2236H124.429C124.119 22.1784 123.897 21.9068 123.764 21.6804C123.188 20.8657 122.655 20.051 122.167 19.2363L121.768 18.6027C120.659 16.8374 119.595 15.0723 118.663 13.3523C118.575 13.2165 118.53 13.0807 118.442 12.945C118.353 12.7639 118.264 12.5829 118.131 12.4018C117.821 11.9039 118.042 11.6324 118.22 11.4513C118.663 11.1345 119.018 11.5871 119.107 11.7229C119.55 12.3566 119.95 13.0355 120.349 13.7144C120.571 14.0765 120.748 14.4386 120.97 14.8007C122.212 16.8374 123.498 18.8742 124.784 20.911C124.829 20.9563 124.873 21.0468 124.917 21.0921L125.006 21.2278C125.228 21.4542 125.228 21.6804 125.095 21.9068ZM29.4683 36.662C28.5812 36.3 27.6498 35.9832 26.7183 35.7569C25.3877 35.3947 24.0128 35.3043 22.6379 35.3043C22.1056 35.3043 21.7507 35.44 21.4847 35.9832C21.2184 36.5264 20.9524 37.0694 20.5976 37.5673C19.8436 38.6988 18.9121 39.6041 17.6258 40.0568C15.009 41.0072 12.3477 39.3777 11.4163 37.2958C10.9284 36.2094 10.5736 35.0326 10.3962 33.8558C10.0414 31.5475 10.1301 29.3297 10.8841 27.1118C11.8599 24.4414 13.8114 23.0384 16.5169 22.631C17.4484 22.4952 18.3799 22.631 19.2225 22.9931C20.3757 23.4457 21.0855 24.3508 21.7064 25.392C22.1056 26.1161 22.1056 26.1161 22.8152 25.8446C24.8999 25.0299 26.8071 23.8531 28.6699 22.5857C29.1135 22.2689 29.1135 22.2689 28.8916 21.771C28.5368 20.9563 28.049 20.1868 27.6054 19.4174C25.2991 15.1175 21.5733 13.2618 16.9161 13.126C15.4969 13.0807 14.0775 13.3976 12.7026 13.8049C11.2389 14.2576 9.81958 14.846 8.62204 15.7964C6.53742 17.4712 4.85199 19.4627 3.78749 21.952C2.45689 25.0752 1.92464 28.3792 2.01335 31.7739C2.0577 38.4273 3.8762 42.546 5.65035 44.9902C7.42449 47.3891 9.55346 49.3353 12.4808 50.1953C14.1662 50.6932 15.896 50.9648 17.6258 50.6932C19.5331 50.3764 21.3072 49.7427 22.9039 48.6564C24.6336 47.4796 26.0974 46.0764 27.1619 44.266C28.1376 42.5913 28.8916 40.7809 29.6014 38.9704C29.7787 38.563 29.8675 38.1105 30.0006 37.6579C30.1335 37.0241 30.0448 36.8884 29.4683 36.662ZM8.79946 19.6436C7.86803 20.8657 7.24708 22.2689 6.67048 23.6267C5.73906 25.8899 5.25116 28.3792 5.29551 31.0044C5.29551 31.3212 5.29551 31.5475 5.33987 31.7739C5.38423 32.3169 5.07375 32.4528 4.89634 32.498H4.76327C4.63021 32.498 4.49715 32.4528 4.40844 32.4075C4.27539 32.3169 4.18668 32.136 4.18668 31.9548C4.14232 31.7739 4.14232 31.5928 4.09797 31.4118C4.00927 30.9592 3.96491 30.5065 3.96491 30.0539V29.7824C3.96491 28.6056 4.18668 27.4739 4.36409 26.5688C4.80763 24.3961 5.65035 22.2236 7.02532 19.9606C7.24708 19.5532 7.55756 19.191 7.91239 18.8289C8.17851 18.5574 8.53334 18.5121 8.84382 18.7836C9.02122 19.01 9.06558 19.3268 8.79946 19.6436ZM9.50911 18.0595C9.24299 17.8332 9.24299 17.4712 9.42041 17.2448C10.2188 16.2491 11.1058 15.6607 12.126 15.3891C12.3034 15.3438 12.5252 15.3891 12.6582 15.4796C12.7913 15.6154 12.88 15.7964 12.88 15.9775C12.88 16.2491 12.7026 16.4753 12.4365 16.5206C11.7268 16.747 11.1946 17.1996 10.751 17.6521C10.618 17.788 10.4849 17.9238 10.2631 18.0595C10.1301 18.15 10.0414 18.1953 9.90829 18.1953C9.77524 18.2406 9.64218 18.15 9.50911 18.0595Z" fill="#222227"/>
</svg>
