<svg width="140" height="64" viewBox="0 0 140 64" fill="none" xmlns="http://www.w3.org/2000/svg">
<path d="M0 41.5472L8.48988 63.9994H12.7583L17.5288 51.4535L22.3271 63.9994H26.5956L35.0363 41.5472H0V41.5472ZM10.5011 58.7143L5.98718 46.0956H15.408L10.5011 58.7143ZM29.2452 46.0956L24.3384 58.7143L19.8241 46.0956H29.2452Z" fill="#222227"/>
<path d="M81.696 41.5472L78.0492 50.5681H75.4252V41.5472H71.3535V63.9997H75.4252V55.1154H78.1855L81.696 63.9997H85.8281L81.4949 52.5952L85.8281 41.5472H81.696Z" fill="#222227"/>
<path d="M139.971 52.5954L140 52.52H139.94L135.504 41.5475H123.904H123.758V64H135.504L139.944 52.6668H140L139.971 52.5954ZM127.831 59.8225V46.0958H133.157L135.706 52.5954L133.046 59.8225H127.831Z" fill="#222227"/>
<path d="M49.0777 46.0956L50.5495 41.5472H38.0371V63.9994H48.0956L49.5681 59.7864H42.1088V55.1154H46.28L47.7518 50.5681H42.1088V46.0956H49.0777Z" fill="#222227"/>
<path d="M115.515 55.4609L109.436 41.5475H109.136H105.171H105.064V64H109.136V50.505L115.259 64H115.515H119.588V41.5475H115.515V55.4609Z" fill="#222227"/>
<path d="M65.4641 46.0956L66.9373 41.5472H54.4238V63.9994H64.4841L65.9555 59.7864H58.4969V55.1154H62.6678L64.14 50.5681H58.4969V46.0956H65.4641Z" fill="#222227"/>
<path d="M99.9103 46.0956L101.383 41.5472H88.8711V63.9994H98.9292L100.402 59.7864H92.9434V55.1154H97.114L98.5869 50.5681H92.9434V46.0956H99.9103Z" fill="#222227"/>
<path d="M38.2717 8.90964H34.0022L25.5625 31.3629H46.7605L38.2717 8.90964ZM36.2594 14.1973L40.7744 26.8171H31.3525L36.2594 14.1973Z" fill="#222227"/>
<path d="M90.5705 8.90967H86.301L77.8613 31.3629H99.059L90.5705 8.90967ZM88.5593 14.1973L93.0736 26.8171H83.6514L88.5593 14.1973Z" fill="#222227"/>
<path d="M35.127 5.71785L37.188 0H41.6522L39.5441 5.66952L35.127 5.71785Z" fill="#222227"/>
<path d="M60.2541 8.90991H47.8887V12.8171H51.8642V31.3632H56.2305V12.8171H60.2541V8.90991Z" fill="#222227"/>
<path d="M76.0502 26.817H68.5915V8.90991H64.5195V31.3635H74.5787L76.0502 26.817Z" fill="#222227"/>
<path d="M110.93 14.3572L113.911 11.5484C113.911 11.5484 111.15 7.99856 107.765 8.03591C104.378 8.07216 101.435 10.6231 101.435 13.7285C101.435 16.8338 104.195 18.7562 106.072 20.42C107.948 22.0845 110.599 23.8596 110.157 25.6329C109.715 27.4073 106.918 27.925 105.741 26.7423C104.563 25.5593 104.047 24.3766 104.047 24.3766L100.441 26.4461C100.441 26.4461 102.17 31.659 107.948 31.3628C113.726 31.0677 114.867 26.1144 114.315 23.8223C113.763 21.5301 111.451 19.4515 109.458 17.795C107.984 16.5709 103.903 13.5128 106.514 12.2866C108.795 11.2145 110.93 14.3572 110.93 14.3572Z" fill="#222227"/>
</svg>
