<svg width="41" height="41" viewBox="0 0 41 41" fill="none" xmlns="http://www.w3.org/2000/svg">
<path fill-rule="evenodd" clip-rule="evenodd" d="M27.8643 21.7425C31.9034 18.5821 33.4846 13.2231 31.8032 8.39322C30.1217 3.56332 25.5471 0.323975 20.4077 0.323975C15.2683 0.323975 10.6937 3.56332 9.01223 8.39322C7.33076 13.2231 8.91201 18.5821 12.9511 21.7425C6.07157 24.4836 1.26704 30.7675 0.449799 38.093C0.327697 39.197 1.12856 40.1903 2.23857 40.3117C3.34859 40.4332 4.34741 39.6367 4.46952 38.5328C5.38326 30.443 12.2623 24.3271 20.4479 24.3271C28.6335 24.3271 35.5125 30.443 36.4263 38.5328C36.5395 39.5501 37.407 40.318 38.4361 40.3117H38.6572C39.7539 40.1863 40.5435 39.2046 40.4259 38.113C39.6047 30.7659 34.7732 24.4694 27.8643 21.7425V21.7425ZM20.4047 20.3231C15.9646 20.3231 12.3652 16.7435 12.3652 12.3277C12.3652 7.91203 15.9646 4.33239 20.4047 4.33239C24.8447 4.33239 28.4441 7.91203 28.4441 12.3277C28.4441 14.4483 27.5971 16.4819 26.0894 17.9813C24.5817 19.4807 22.5369 20.3231 20.4047 20.3231Z" fill="#272525"/>
</svg>
