<svg width="299" height="64" viewBox="0 0 299 64" fill="none" xmlns="http://www.w3.org/2000/svg">
<path d="M32.7451 43.5754C32.9099 43.0569 33.2643 42.6236 33.8083 42.2756C34.3504 41.8812 34.9234 41.6716 35.5271 41.6469C35.7129 41.6393 35.9935 41.6743 36.3689 41.7519C37.731 42.0682 38.4368 42.8302 38.4864 44.0377C38.5302 45.106 38.1105 46.2165 37.2273 47.3693C37.3354 47.737 37.3952 48.0602 37.4066 48.3389C37.4314 48.9427 37.3168 49.5522 37.0629 50.1674C36.8555 50.7807 36.53 51.3523 36.0865 51.8823C35.9776 52.6311 35.7953 53.2899 35.5395 53.8587C35.3282 54.3791 34.9814 54.9981 34.4991 55.7157C33.9722 56.4817 33.4368 57.0387 32.8928 57.3867C32.3933 57.6863 31.6849 57.9945 30.7674 58.3113C30.5618 58.971 30.215 59.59 29.727 60.1683C29.2371 60.7002 28.6205 60.9813 27.8774 61.0118C27.5059 61.0271 27.1082 60.9736 26.6845 60.8514C26.3746 61.2363 25.9226 61.5572 25.3283 61.8142C24.7786 62.0229 24.2018 62.1396 23.598 62.1643C22.8085 62.1967 22.1748 62.0599 21.697 61.7538C21.1492 62.0089 20.4341 62.1545 19.5516 62.1907C18.3905 62.2383 17.2682 62.0983 16.1847 61.7705C15.1012 61.4428 14.2414 60.8965 13.6052 60.1317C12.4944 60.2703 11.555 60.0529 10.7871 59.4796C10.1216 59.1347 9.6865 58.7339 9.48167 58.2771C7.72892 57.5115 6.83005 56.0131 6.78506 53.7819C5.92619 53.2588 5.27347 52.6575 4.82689 51.978C4.37841 51.252 4.0152 50.3364 3.73726 49.2313C3.35046 48.875 3.14468 48.3949 3.11991 47.7911C3.10848 47.5125 3.12218 47.2793 3.16101 47.0916C2.72586 46.6907 2.494 46.142 2.46543 45.4453C2.45209 45.1202 2.50843 44.7922 2.63443 44.4614C1.95562 43.7914 1.58955 42.8061 1.53622 41.5057C1.4886 40.3446 1.7069 39.4284 2.19113 38.7572C1.84696 38.3061 1.66345 37.8019 1.64059 37.2445C1.62345 36.8265 1.72147 36.3805 1.93464 35.9066C1.69099 35.6374 1.55202 35.0848 1.51773 34.2488C1.47963 33.3199 1.58087 32.3853 1.82144 31.445C2.06011 30.4582 2.38178 29.7937 2.78645 29.4514C2.63569 29.1785 2.54983 28.7866 2.52888 28.2757C2.4984 27.5325 2.58594 26.8311 2.7915 26.1714C3.0435 25.5097 3.40077 25.1461 3.86332 25.0806C3.82331 24.1053 4.18667 23.3228 4.95337 22.733C4.88026 22.0847 5.08296 21.3553 5.56147 20.5448C6.08643 19.7323 6.69153 19.1725 7.37678 18.8653C7.4742 17.8378 7.85697 16.9614 8.52507 16.2361C9.19317 15.5109 9.94332 15.0847 10.7755 14.9575C10.9906 14.53 11.3943 14.1645 11.9867 13.8611C12.6236 13.5093 13.2439 13.321 13.8477 13.2962C14.3121 13.2772 14.7107 13.3539 15.0435 13.5263C15.7135 12.8475 16.4897 12.49 17.3722 12.4538C18.1153 12.4234 18.6106 12.5891 18.858 12.9512C19.2258 12.843 19.549 12.7833 19.8277 12.7718C20.6637 12.7376 21.3031 13.0137 21.7458 13.6004C21.9259 13.4534 22.2017 13.3723 22.5733 13.3571C23.2235 13.3304 23.951 13.4867 24.7558 13.8258C25.6052 14.1167 26.1062 14.4218 26.2588 14.7412C27.2418 14.887 28.1443 15.3384 28.9662 16.0956C29.7863 16.8064 30.1428 17.5594 30.0358 18.3547C30.6994 18.6531 31.1829 19.0985 31.4863 19.6909C31.7879 20.2368 31.9027 20.7671 31.8307 21.2818C32.2621 21.5898 32.5579 21.9963 32.7182 22.5015C32.8766 22.9602 32.9809 23.2351 33.0311 23.3261C33.9924 24.0776 34.4978 25.0571 34.5473 26.2646C34.5569 26.4969 34.5228 26.8007 34.4452 27.176C34.4992 27.3599 34.532 27.5912 34.5434 27.8699C34.5758 28.6594 34.3015 29.3453 33.7206 29.9274C33.1842 30.4611 32.5444 30.7432 31.8013 30.7737C31.0582 30.8042 30.3965 30.5522 29.8163 30.0177C28.4587 28.6777 27.6817 27.3139 27.4852 25.9262C26.9203 25.7633 26.4647 25.4331 26.1187 24.9355C25.7707 24.3915 25.6066 23.7934 25.6264 23.1413C25.1969 22.8798 24.8575 22.5448 24.6082 22.1363C24.4033 21.6794 24.3146 21.2179 24.342 20.7515C23.506 20.7858 22.8453 20.557 22.3599 20.0652C22.2225 20.1173 21.968 20.151 21.5964 20.1663C21.0855 20.1872 20.5253 20.1404 19.9158 20.0258C19.3044 19.8648 18.8314 19.6749 18.4968 19.456C18.3129 19.51 18.0352 19.5447 17.6636 19.5599C17.1527 19.5809 16.8025 19.5487 16.6129 19.4634C16.0243 19.8598 15.4514 20.0694 14.8941 20.0922C14.7083 20.0998 14.3813 20.0667 13.913 19.9929C13.4192 20.4318 12.9411 20.6841 12.4786 20.7496C12.4161 21.4965 12.2348 22.1785 11.9344 22.7956C11.6805 23.4109 11.3232 23.7744 10.8626 23.8864C10.9783 24.4399 10.9083 25.001 10.6525 25.5698C10.3948 26.0921 10.0171 26.5263 9.51957 26.8724C9.48837 27.2459 9.3875 27.6222 9.21695 28.0014C9.04451 28.3341 8.82276 28.5991 8.55171 28.7963C8.60768 29.0266 8.66555 29.3034 8.72533 29.6266C8.78321 29.9033 8.82072 30.2507 8.83786 30.6687C8.87786 31.6441 8.49129 32.4276 7.67813 33.0192C7.7029 33.623 7.60679 34.1154 7.3898 34.4965C7.64107 34.9514 7.77623 35.4111 7.79528 35.8756C7.81433 36.34 7.73859 36.7618 7.56804 37.141C7.86576 37.594 8.02319 38.0295 8.04034 38.4475C8.05748 38.8655 7.96137 39.358 7.752 39.9248C7.54454 40.5382 7.42806 41.1012 7.40257 41.614C7.8301 41.8291 8.16855 42.1409 8.41792 42.5493C8.66729 42.9578 8.8015 43.3943 8.82055 43.8587C8.8415 44.3696 8.72121 44.8398 8.45969 45.2692C8.83887 45.4398 9.13087 45.7535 9.3357 46.2103C9.54053 46.6671 9.65342 47.151 9.67437 47.6619C9.69532 48.1728 9.61958 48.5946 9.44713 48.9273C10.4918 49.4428 11.2123 49.9948 11.6086 50.5833C12.0495 51.1235 12.3885 52.0168 12.6257 53.2632C12.9565 53.3892 13.3376 53.6062 13.769 53.9141C14.2467 54.2202 14.5601 54.4865 14.7089 54.713C15.4966 54.6342 16.317 54.7866 17.1701 55.1703C18.0678 55.5057 18.6926 55.9918 19.0444 56.6287C19.3135 56.3851 19.7471 56.1812 20.3452 56.0171C20.9878 55.8047 21.611 55.6861 22.2148 55.6613C22.865 55.6346 23.31 55.7094 23.5499 55.8857C24.1677 55.0694 24.9411 54.6423 25.87 54.6042C26.1487 54.5927 26.3586 54.6074 26.4999 54.6481C27.2182 54.0139 27.7816 53.5721 28.1901 53.3227C28.5967 53.0269 29.0758 52.7979 29.6274 52.6357C29.6453 51.9371 29.8963 51.2522 30.3806 50.581C30.4118 50.2076 30.533 49.7606 30.7443 49.2402C30.9537 48.6733 31.1687 48.2458 31.3895 47.9576C31.3374 47.8202 31.3046 47.5889 31.2913 47.2638C31.2665 46.66 31.4024 46.0031 31.699 45.2931C31.9936 44.5367 32.3423 43.9641 32.7451 43.5754Z" fill="#C62E2A"/>
<path d="M76.4302 51.7629C76.8966 51.7903 77.3241 52.0054 77.7128 52.4082C78.1015 52.8109 78.3992 53.2639 78.606 53.7672C78.8591 54.2686 78.944 54.6373 78.8607 54.8733C79.4409 55.4078 79.7481 56.0931 79.7824 56.9291C79.811 57.6257 79.6045 58.2623 79.1629 58.8387C78.7658 59.3667 78.2209 59.6914 77.528 59.8129C76.6939 59.8936 75.8204 59.5805 74.9074 58.8736C73.9945 58.1667 73.4745 57.3971 73.3473 56.5649C72.7766 56.2627 72.1433 55.5675 71.4474 54.4795C70.7979 53.3896 70.4588 52.4963 70.4302 51.7996C69.8558 51.4045 69.2931 50.7297 68.7422 49.7753C68.1894 48.7745 67.9944 47.9916 68.1574 47.4266C67.4862 46.9424 66.9486 46.3131 66.5447 45.5388C66.1853 44.7161 65.9884 43.8868 65.9541 43.0508C65.2536 42.9865 64.654 42.5458 64.1553 41.7289C63.703 40.91 63.4607 40.1058 63.4283 39.3162C63.0008 39.1011 62.6381 38.7671 62.3404 38.3141C62.0427 37.861 61.8843 37.4023 61.8653 36.9379C61.8538 36.6592 61.9353 36.3767 62.1096 36.0904C61.6566 36.3881 61.1747 36.5475 60.6638 36.5684C60.1529 36.5894 59.5908 36.4961 58.9775 36.2887C58.3349 36.5011 57.642 36.6226 56.8989 36.6531C56.2486 36.6797 55.8027 36.5817 55.5609 36.359C54.8642 36.3876 54.3215 36.2005 53.9328 35.7977C53.5906 35.393 53.4061 34.8656 53.3794 34.2154C53.3547 33.6116 53.4712 33.0485 53.7289 32.5262C54.033 32.002 54.3718 31.7555 54.7453 31.7867C54.8344 31.69 55.0628 31.5876 55.4306 31.4794C55.7983 31.3713 56.1912 31.3087 56.6092 31.2915C57.3523 31.261 57.8902 31.332 58.223 31.5045C58.9604 31.3347 59.631 31.2374 60.2348 31.2126C60.885 31.1859 61.2836 31.2626 61.4305 31.4427C61.9243 31.0037 62.4266 30.7738 62.9375 30.7528C63.3091 30.7376 63.6129 30.7717 63.8489 30.855C64.1123 30.472 64.6322 30.1018 65.4084 29.7443C66.2292 29.3384 66.8978 29.1947 67.4145 29.3131C67.5831 28.8875 67.8977 28.6187 68.3584 28.5067C68.8171 28.3484 69.2574 28.307 69.6792 28.3828C69.6621 27.9648 69.7842 27.5411 70.0458 27.1116C70.3073 26.6822 70.6229 26.4366 70.9925 26.375C70.7801 25.7323 70.6624 25.1324 70.6396 24.575C70.6129 23.9248 70.6849 23.4101 70.8554 23.0309C70.5672 22.8101 70.3458 22.5168 70.1912 22.151C70.0812 21.7368 70.0641 21.3188 70.1398 20.8969C69.5151 20.4108 69.1003 19.9393 68.8955 19.4825C68.3362 19.4589 67.8371 19.2002 67.3982 18.7065C66.7982 18.8241 66.3077 18.7745 65.9266 18.5575C65.5455 18.3405 65.1857 18.0761 64.8473 17.7643C64.5088 17.4526 64.2429 17.2076 64.0495 17.0294C63.3273 17.5708 62.4786 17.8615 61.5032 17.9015C60.4814 17.9434 59.6795 17.6739 59.0974 17.093C58.7411 17.4798 58.1217 17.6913 57.2392 17.7274C56.4032 17.7617 55.7221 17.6036 55.196 17.253C54.8397 17.6398 54.2667 17.8494 53.4772 17.8817C52.6876 17.9141 52.0549 17.8005 51.579 17.5409C51.8398 18.228 51.9893 19.0361 52.0274 19.965C52.0597 20.7545 51.9713 21.4327 51.7619 21.9996C52.1677 22.8204 52.3888 23.672 52.4249 24.5544C52.4611 25.4369 52.302 26.0947 51.9476 26.528C52.2491 27.0739 52.4123 27.6487 52.437 28.2525C52.4637 28.9028 52.2998 29.4445 51.9454 29.8777C52.427 30.2767 52.6888 30.9871 52.7307 32.0089C52.7669 32.8913 52.6774 33.5463 52.4623 33.9738C52.7079 34.2894 52.9156 34.8159 53.0854 35.5533C53.2552 36.2907 53.3554 37.031 53.3858 37.7741C53.4125 38.4243 53.3638 38.9381 53.2397 39.3154C53.3402 39.4973 53.4474 39.8419 53.5612 40.349C53.6732 40.8096 53.7396 41.2954 53.7606 41.8063C53.8025 42.828 53.6917 43.5304 53.4283 43.9134C53.927 44.7304 54.1935 45.5569 54.2278 46.3929C54.2545 47.0431 54.0944 47.6777 53.7476 48.2968C54.345 49.2493 54.6712 50.3989 54.7265 51.7459C54.7741 52.907 54.5762 53.7525 54.1327 54.2825C54.494 55.1516 54.6946 56.0738 54.7346 57.0492C54.7804 58.1638 54.5398 59.1042 54.0129 59.8701C53.4842 60.5897 52.5928 60.9752 51.3387 61.0266C50.5956 61.0571 49.9757 60.687 49.4788 59.9165C49.0284 59.1441 48.7823 58.247 48.7404 57.2252C48.7042 56.3428 48.7917 55.6413 49.003 55.1209C48.5952 54.2537 48.3695 53.286 48.3257 52.2177C48.2876 51.2888 48.3964 50.54 48.6522 49.9712C48.2273 48.686 47.9949 47.5557 47.9549 46.5804C47.9149 45.605 48.0702 44.8543 48.4208 44.3282C48.0416 44.1576 47.7273 43.8681 47.478 43.4596C47.2731 43.0028 47.1602 42.5189 47.1393 42.008C47.1012 41.0791 47.3271 40.3488 47.8171 39.8169C47.6256 39.6852 47.4535 39.4596 47.3008 39.1402C47.1927 38.7725 47.131 38.4028 47.1158 38.0313C47.0777 37.1024 47.2202 36.608 47.5434 36.5483C47.3984 36.4146 47.268 36.0711 47.1522 35.5175C47.0365 34.964 46.9662 34.3853 46.9415 33.7816C46.9072 32.9455 46.9502 32.2925 47.0705 31.8223C46.6296 31.2821 46.3901 30.5476 46.352 29.6187C46.3215 28.8755 46.4361 28.266 46.6957 27.7902C46.3999 27.3836 46.2377 26.832 46.2092 26.1353C46.1806 25.4386 46.3639 24.803 46.759 24.2285C46.448 23.4504 46.281 22.7827 46.2582 22.2253C46.2315 21.5751 46.4186 21.0324 46.8194 20.5973C46.5293 20.33 46.3515 19.9651 46.2861 19.5026C46.2187 18.9936 46.1716 18.414 46.145 17.7638C45.4426 17.653 44.8951 17.3498 44.5026 16.8541C44.1101 16.3585 43.9005 15.7855 43.8738 15.1353C43.8414 14.3457 44.0693 13.6618 44.5573 13.0835C45.0899 12.4569 45.7984 12.1487 46.6827 12.1589C46.6267 11.9286 46.8736 11.7091 47.4233 11.5005C48.0195 11.2899 48.6427 11.1713 49.2929 11.1447C50.3147 11.1028 50.9987 11.3306 51.3447 11.8282C51.6196 11.7238 51.9892 11.6621 52.4537 11.6431C53.1039 11.6164 53.549 11.6912 53.7888 11.8675C54.3328 11.5195 55.0228 11.3284 55.8588 11.2941C56.8342 11.2541 57.5394 11.4345 57.9746 11.8354C58.892 11.5186 59.6527 11.3478 60.2564 11.3231C61.1389 11.2869 61.8219 11.4915 62.3054 11.9369C62.9461 11.678 63.7541 11.5286 64.7294 11.4886C65.4726 11.4581 66.1276 11.5475 66.6944 11.7569C67.2594 11.9198 67.6433 12.2065 67.8462 12.6169C67.9837 12.5647 68.1917 12.5329 68.4704 12.5215C69.0742 12.4967 69.6178 12.707 70.1013 13.1524C70.6294 13.5495 70.9996 14.0693 71.2121 14.7119C72.1002 14.8151 72.7463 15.2538 73.1502 16.0281C73.99 16.0867 74.5858 16.4345 74.9376 17.0714C75.3339 17.6599 75.5493 18.3722 75.5835 19.2082C76.1363 20.209 76.4308 21.1507 76.467 22.0331C76.4956 22.7298 76.3569 23.317 76.0508 23.7948C76.2594 24.3445 76.3752 24.8981 76.398 25.4554C76.4323 26.2914 76.1841 27.046 75.6535 27.7191C75.6839 28.4622 75.5054 29.2139 75.1179 29.9741C74.7285 30.688 74.1892 31.152 73.5002 31.3664C73.3391 31.9778 73.034 32.4788 72.5848 32.8694C72.1356 33.26 71.5859 33.4687 70.9356 33.4953C70.7187 33.8764 70.405 34.1684 69.9946 34.3713C69.5823 34.5278 69.0994 34.6639 68.5459 34.7797C68.0388 34.8935 67.6246 35.0036 67.3033 35.1098C67.5838 35.1448 67.8266 35.3907 68.0314 35.8475C68.2343 36.2579 68.269 36.5357 68.1353 36.6807C68.5107 36.7584 68.8994 37.1611 69.3014 37.889C69.7016 38.5704 69.8425 39.1695 69.7241 39.6861C70.4284 39.8433 70.9806 40.2626 71.3807 40.944C71.8273 41.6236 72.0696 42.4278 72.1077 43.3567C72.6879 43.8912 73.1809 44.5688 73.5868 45.3896C73.9926 46.2103 74.1876 46.9932 74.1716 47.7383C74.93 48.0793 75.5102 48.6138 75.9122 49.3417C76.3142 50.0696 76.4869 50.8766 76.4302 51.7629Z" fill="#64A7DE"/>
<path d="M108.07 9.71104C108.521 9.36687 109.118 9.17955 109.861 9.14907C110.929 9.10526 112.012 9.40979 113.109 10.0627C113.62 10.0417 114.046 10.2336 114.388 10.6382C114.731 11.0429 114.914 11.5471 114.939 12.1509C114.971 12.9405 114.768 13.6467 114.328 14.2695C113.888 14.8923 113.25 15.2209 112.414 15.2552C111.811 15.28 111.153 15.1208 110.441 14.7779C110.085 15.1647 109.604 15.3704 109.001 15.3952C108.35 15.4219 107.667 15.2173 106.952 14.7814C106.497 15.0327 105.805 15.1773 104.876 15.2154C103.529 15.2707 102.476 15.1045 101.715 14.717C101.032 15.0707 100.319 15.2628 99.5756 15.2933C98.9718 15.318 98.3874 15.2489 97.8224 15.086C97.2282 15.343 96.6524 15.4829 96.095 15.5058C95.3519 15.5363 94.6002 15.3577 93.84 14.9702C93.023 15.469 92.2913 15.7781 91.6449 15.8977C92.0024 16.6739 92.2002 17.5265 92.2383 18.4554C92.2859 19.6165 92.0686 20.5559 91.5862 21.2735C92.1798 22.1331 92.4984 23.097 92.5422 24.1652C92.5765 25.0012 92.4018 25.8458 92.0181 26.699C92.4552 27.1463 92.688 27.7183 92.7165 28.4149C92.7356 28.8794 92.5959 29.4434 92.2974 30.107C92.7059 29.8576 93.2121 29.7205 93.8158 29.6958C94.2803 29.6767 94.6073 29.7098 94.7969 29.7951C95.2926 29.4026 95.8423 29.1939 96.4461 29.1692C97.0498 29.1444 97.6641 29.3751 98.2888 29.8612C98.8405 29.699 99.3021 29.6103 99.6736 29.5951C99.9059 29.5856 100.303 29.6158 100.864 29.6859C101.417 29.5701 101.81 29.5075 102.042 29.4979C102.832 29.4656 103.42 29.6275 103.807 29.9838C104.169 29.7364 104.582 29.6031 105.047 29.5841C105.604 29.5612 105.957 29.663 106.106 29.8896C106.518 29.7331 106.84 29.6501 107.073 29.6406C107.398 29.6272 107.843 29.702 108.408 29.8649C108.998 29.5151 109.572 29.3287 110.129 29.3058C110.919 29.2735 111.605 29.5477 112.187 30.1286C112.767 30.6631 113.072 31.2787 113.1 31.9754C113.125 32.5792 112.937 33.0986 112.536 33.5338C112.135 33.9689 111.494 34.2278 110.614 34.3105C110.219 34.8849 109.533 35.1922 108.558 35.2322C107.676 35.2684 106.877 35.0685 106.161 34.6327C105.715 35.1162 105.052 35.376 104.169 35.4122C103.38 35.4446 102.722 35.2855 102.196 34.9349C101.835 35.2288 101.446 35.3843 101.028 35.4014C100.75 35.4129 100.514 35.3295 100.32 35.1513C99.8284 35.6367 99.1412 35.8975 98.2588 35.9337C97.6085 35.9604 96.999 35.8458 96.4303 35.59C95.9753 35.8413 95.5853 35.9736 95.2602 35.9869C94.7958 36.006 94.3246 35.8625 93.8469 35.5564C93.5294 35.7555 93.2787 35.8821 93.0948 35.9362C92.9109 35.9902 92.6555 36.0007 92.3285 35.9676C92.7807 36.7865 93.0164 37.4281 93.0355 37.8926C93.0526 38.3106 92.9333 38.804 92.6775 39.3727C93.0178 39.731 93.1994 40.1887 93.2223 40.7461C93.2394 41.1641 93.1414 41.6101 92.9282 42.0841C93.2686 42.4423 93.4511 42.9233 93.4759 43.5271C93.4988 44.0844 93.3553 44.5555 93.0454 44.9404C93.3469 45.4863 93.5043 45.9218 93.5177 46.247C93.5291 46.5256 93.3624 46.9977 93.0175 47.6632C93.2109 47.8413 93.3142 48.093 93.3276 48.4181C93.3447 48.8361 93.2168 49.1205 92.9439 49.2712C93.4255 49.6702 93.6796 50.1948 93.7063 50.845C93.7158 51.0772 93.6855 51.4739 93.6155 52.0351L94.0306 51.9483C94.5415 51.9273 95.0852 52.1376 95.6616 52.5792C96.3373 52.0398 97.2325 51.7472 98.3472 51.7014C98.7652 51.6843 99.2083 51.7127 99.6766 51.7865C99.9419 51.4499 100.326 51.1783 100.829 50.9716C101.333 50.7648 101.886 50.6491 102.49 50.6243C103.465 50.5843 104.217 50.7629 104.745 51.1599C105.005 50.684 105.477 50.2925 106.162 49.9852C106.848 49.678 107.539 49.5101 108.235 49.4815C108.746 49.4605 109.167 49.5131 109.498 49.6391C109.997 49.3394 110.456 49.1811 110.874 49.1639C111.617 49.1334 112.28 49.4087 112.862 49.9896C113.444 50.5705 113.751 51.2558 113.784 52.0453C113.824 53.0207 113.414 53.8051 112.554 54.3986C112.384 54.7778 112.026 55.1182 111.48 55.4197C110.932 55.6748 110.333 55.8157 109.683 55.8423C109.032 55.869 108.517 55.7738 108.136 55.5569C107.779 55.9437 107.305 56.2888 106.713 56.5922C106.118 56.8492 105.519 56.9901 104.915 57.0148C103.987 57.0529 103.256 56.827 102.724 56.3371C101.969 57.2055 100.964 57.6654 99.7104 57.7168C99.4782 57.7263 99.0815 57.6961 98.5204 57.626C97.6143 58.2215 96.7201 58.5373 95.8376 58.5735C95.141 58.6021 94.5295 58.441 94.0034 58.0904C93.5249 58.901 92.798 59.3262 91.8226 59.3662C90.9866 59.4005 90.2302 59.1059 89.5533 58.4823C88.9228 57.8568 88.6824 57.0991 88.832 56.209C88.5419 55.9417 88.3157 55.5323 88.1535 54.9807C87.9913 54.4291 87.8988 53.8746 87.876 53.3172C87.8588 52.8992 87.8697 52.5964 87.9085 52.4087C87.2799 51.8297 86.9361 50.8203 86.8771 49.3805C86.8523 48.7767 86.8991 48.2165 87.0175 47.6999C87.134 47.1368 87.2803 46.7354 87.4566 46.4955C87.2053 46.0406 87.0692 45.5577 87.0483 45.0468C87.0387 44.8146 87.0728 44.5108 87.1505 44.1354C86.7153 43.7346 86.4834 43.1858 86.4549 42.4891C86.4282 41.8389 86.5698 41.3213 86.8797 40.9364C86.6284 40.4815 86.4952 40.0683 86.4799 39.6967C86.459 39.1858 86.6015 38.6915 86.9076 38.2137C86.5017 37.3929 86.2826 36.5877 86.2502 35.7982C86.2102 34.8228 86.474 33.8816 87.0416 32.9743C86.7382 32.382 86.4523 31.6493 86.1839 30.7764C85.9619 29.9016 85.8347 29.0694 85.8023 28.2798C85.7414 26.7936 86.0478 25.7575 86.7216 25.1716C86.4475 24.1593 86.3095 23.63 86.3076 23.5835C85.9832 22.4803 85.8115 21.6964 85.7924 21.232C85.7638 20.5353 85.8921 19.6926 86.1772 18.7039C85.9317 18.3883 85.724 17.8618 85.5542 17.1244C85.3843 16.387 85.316 15.8548 85.3491 15.5278C84.7689 14.9933 84.4626 14.3313 84.4302 13.5417C84.4055 12.938 84.5684 12.373 84.919 11.8469C85.3141 11.2724 85.833 10.8789 86.4756 10.6665C86.7874 10.328 87.2182 10.0545 87.7679 9.84583C88.3157 9.59075 88.8915 9.45083 89.4953 9.42606C90.2849 9.39368 90.9669 9.57506 91.5414 9.97021C92.3214 9.7056 93.1062 9.5571 93.8958 9.52472C95.0104 9.479 95.9266 9.69731 96.6442 10.1796C97.0546 9.97671 97.5385 9.86382 98.0958 9.84096C98.6067 9.82 99.0063 9.91992 99.2944 10.1407C99.5636 9.89707 100.232 9.75333 101.301 9.70952C102.694 9.65238 103.795 9.83984 104.603 10.2719C105.093 9.74006 105.71 9.45889 106.453 9.42842C106.918 9.40937 107.456 9.50357 108.07 9.71104Z" fill="#333B8B"/>
<path d="M158.85 49.0805C158.85 49.0805 159.251 49.2268 160.054 49.5196C160.904 49.8104 161.273 50.8885 161.164 52.7539C161.365 53.1179 161.475 53.5321 161.494 53.9965C161.524 54.7396 161.247 55.3558 160.663 55.845C160.078 56.3342 159.391 56.595 158.601 56.6274C157.904 56.656 157.292 56.4718 156.764 56.0747C156.281 55.6293 156.022 54.9886 155.987 54.1526C155.473 54.0806 154.922 53.7078 154.336 53.034C153.795 52.3118 153.509 51.5791 153.479 50.836C153.471 50.6502 153.506 50.3697 153.584 49.9943C153.11 49.7811 152.673 49.3338 152.273 48.6524C151.917 47.9226 151.653 47.1658 151.482 46.3819C151.31 45.5981 151.241 45.0426 151.274 44.7156C150.658 44.4617 150.143 43.8083 149.728 42.7553C149.357 41.6539 149.202 40.7066 149.262 39.9132C148.943 40.0659 148.551 40.1517 148.086 40.1708C147.158 40.2089 146.287 39.9654 145.475 39.4405C144.895 40.069 144.002 40.4081 142.795 40.4576C141.68 40.5033 140.879 40.257 140.392 39.7187C139.809 40.2544 139.169 40.5365 138.472 40.5651C137.915 40.5879 137.469 40.4899 137.134 40.271C136.819 40.5166 136.336 40.6527 135.686 40.6794C135.128 40.7022 134.567 40.6322 134.002 40.4693C133.437 40.3063 132.986 40.069 132.647 39.7572C132.601 39.7591 132.486 39.8103 132.305 39.9108C132.619 40.7819 132.791 41.5657 132.82 42.2624C132.863 43.3306 132.367 44.2814 131.332 45.1148C131.533 45.4787 131.644 45.9162 131.665 46.4271C131.706 47.4488 131.398 48.4385 130.74 49.3959C130.081 50.3534 129.428 50.8919 128.782 51.0115C128.985 51.4219 129.098 51.9057 129.121 52.4631C129.172 53.7171 128.802 54.8954 128.01 55.9979C127.215 57.054 126.215 57.6068 125.007 57.6563C124.682 57.6696 124.426 57.6569 124.238 57.6181C123.634 57.6428 123.162 57.4761 122.822 57.1179C122.481 56.7596 122.299 56.2786 122.274 55.6748C122.257 55.2568 122.353 54.7644 122.562 54.1975C122.508 54.0137 122.474 53.7359 122.458 53.3644C122.42 52.4355 122.851 51.6037 123.752 50.8689C123.7 50.7314 123.668 50.5234 123.656 50.2447C123.628 49.5481 123.762 48.8447 124.058 48.1347C124.399 47.3763 124.844 46.8696 125.392 46.6145C125.341 46.5236 125.31 46.3155 125.296 45.9904C125.264 45.2008 125.412 44.2875 125.742 43.2505C126.07 42.167 126.463 41.5461 126.922 41.3877C126.745 39.3479 127.334 37.2535 128.688 35.1045C128.644 34.0362 128.766 33.031 129.053 32.0887C129.338 31.1001 129.89 30.3796 130.709 29.9273C130.719 29.0429 130.892 28.1519 131.227 27.2542C131.563 26.3565 131.95 25.5963 132.39 24.9734C132.229 24.4682 132.141 24.0066 132.124 23.5886C132.097 22.9384 132.192 22.4228 132.409 22.0417C132.671 21.6122 132.962 21.3444 133.283 21.2382C133.229 21.0543 133.195 20.7766 133.179 20.405C133.137 19.3832 133.476 18.5552 134.194 17.921L134.107 17.5058C134.079 16.8091 134.332 16.1707 134.866 15.5905C134.812 15.4066 134.778 15.1521 134.765 14.827C134.731 13.991 134.905 13.1464 135.289 12.2933C135.673 11.4401 136.114 10.8637 136.614 10.5641C137.402 9.36869 138.261 8.75194 139.19 8.71384C139.608 8.6967 140.148 8.81413 140.809 9.06613C142.158 9.05733 143.176 10.0623 143.864 12.0812C144.303 12.5749 144.63 13.1663 144.844 13.8554C145.056 14.498 145.151 15.0989 145.127 15.6581C145.557 15.9197 145.874 16.2789 146.079 16.7357C146.33 17.1906 146.443 17.6745 146.417 18.1873C146.899 18.5862 147.32 19.2203 147.682 20.0894C148.089 20.9566 148.309 21.785 148.342 22.5746C148.357 22.9461 148.344 23.2025 148.304 23.3438C148.642 23.6555 148.94 24.1086 149.197 24.7028C149.5 25.2952 149.662 25.8468 149.683 26.3577C149.695 26.6364 149.68 26.8463 149.639 26.9876C150.26 27.3808 150.775 28.011 151.182 28.8782C151.637 29.7436 151.951 30.6146 152.127 31.4913C152.347 32.3197 152.417 32.8984 152.338 33.2273C152.436 33.3628 152.706 33.7007 153.147 34.2409C153.586 34.7346 153.933 35.2554 154.188 35.8032C154.441 36.3046 154.577 36.7875 154.596 37.252C154.613 37.67 154.579 37.9738 154.494 38.1634C154.689 38.388 154.91 38.6581 155.155 38.9736C155.399 39.2428 155.595 39.4906 155.744 39.7171C155.893 39.9436 155.974 40.2195 155.987 40.5446C156.001 40.8697 155.987 41.1029 155.946 41.2441C156.333 41.6004 156.678 42.0748 156.982 42.6671C157.285 43.2595 157.448 43.8343 157.471 44.3917C157.49 44.8561 157.412 45.2083 157.235 45.4481C157.762 45.7987 158.178 46.3166 158.485 47.0019C158.793 47.6871 158.914 48.38 158.85 49.0805ZM145.411 34.4884C145.492 34.2059 145.695 34.0348 146.018 33.975C146.339 33.8688 146.619 33.8806 146.857 34.0104C146.753 33.7355 146.698 33.5284 146.692 33.3891C146.677 33.0175 146.758 32.735 146.936 32.5416C146.505 32.2337 146.139 31.8299 145.84 31.3305C145.587 30.8291 145.473 30.322 145.498 29.8092C145.169 29.7297 144.858 29.5098 144.564 29.1497C144.315 28.7412 144.18 28.3047 144.161 27.8403C144.156 27.701 144.192 27.4436 144.269 27.0682C143.269 26.5045 142.744 25.6188 142.695 24.4112C142.676 23.9468 142.724 23.4098 142.838 22.8003C142.79 22.7557 142.67 22.6676 142.478 22.5359C142.285 22.3577 142.204 22.0819 142.235 21.7085C141.295 21.4679 140.823 20.7429 140.82 19.5334C140.441 19.3629 140.125 19.0269 139.871 18.5255C140.008 19.5899 139.624 20.4431 138.72 21.085C138.788 21.594 138.719 22.1783 138.513 22.8381C138.307 23.4979 138.049 23.997 137.737 24.3354C137.791 24.5193 137.827 24.8202 137.844 25.2382C137.888 26.3065 137.504 27.7411 136.694 29.5422C136.483 30.0626 136.316 30.5347 136.194 30.9584C136.027 31.4305 135.838 31.9035 135.624 32.3775C135.458 32.8496 135.216 33.2084 134.901 33.4539C134.92 33.9184 134.844 34.3402 134.674 34.7194L135.228 34.6269C135.693 34.6078 136.046 34.7096 136.287 34.9323C136.417 34.6944 136.691 34.5669 137.109 34.5497C137.388 34.5383 137.6 34.5994 137.745 34.733C138.285 34.2921 138.973 34.0546 139.809 34.0203C140.413 33.9955 140.974 34.0655 141.492 34.2304C142.011 34.3952 142.439 34.6335 142.778 34.9453C143.221 34.4153 143.699 34.1399 144.209 34.1189C144.535 34.1056 144.935 34.2287 145.411 34.4884Z" fill="#5A308C"/>
<path d="M191.26 6.57827C191.893 6.13359 192.628 5.89411 193.464 5.85983C194.114 5.83316 194.654 5.95059 195.083 6.21211C196.005 5.98824 196.781 6.18903 197.411 6.8145C198.086 7.39161 198.441 8.09818 198.475 8.93419C198.503 9.63086 198.272 10.2219 197.78 10.7073C197.335 11.1908 196.647 11.4516 195.719 11.4897C195.115 11.5145 194.648 11.4871 194.319 11.4075C193.826 11.8465 193.114 12.085 192.186 12.1231C191.164 12.165 190.226 11.9941 189.373 11.6104C189.102 11.8076 188.598 11.9911 187.86 12.1609C187.123 12.3307 186.406 12.4299 185.709 12.4585C185.245 12.4775 184.825 12.4482 184.45 12.3706C184.846 12.9591 185.063 13.7179 185.101 14.6468C185.141 15.6221 184.96 16.3041 184.557 16.6928C185.288 17.5003 185.681 18.5774 185.736 19.9243C185.773 20.8068 185.62 21.6272 185.279 22.3856C185.795 23.6205 186.078 24.8418 186.127 26.0494C186.16 26.8389 186.095 27.5394 185.934 28.1508C186.178 28.42 186.382 28.8536 186.546 29.4516C186.756 30.0478 186.874 30.6478 186.899 31.2516C186.927 31.9482 186.813 32.5577 186.555 33.0801C187.278 33.7017 187.669 34.7092 187.726 36.1026C187.764 37.0315 187.678 37.7794 187.469 38.3462C187.914 38.9793 188.157 39.8067 188.199 40.8285C188.224 41.4323 188.129 41.9712 187.916 42.4452C188.166 42.8536 188.305 43.4294 188.336 44.1726C188.364 44.8692 188.293 45.4072 188.123 45.7863C188.606 46.2317 188.869 46.9653 188.911 47.9871C188.928 48.4051 188.875 48.8028 188.751 49.1801C189.383 49.852 189.667 50.5382 189.603 51.2386C189.858 51.7865 189.993 52.2462 190.008 52.6177C190.041 53.4073 189.765 54.0699 189.183 54.6055C188.6 55.1412 187.913 55.4252 187.124 55.4576C186.52 55.4824 185.979 55.3417 185.502 55.0357C185.068 54.6812 184.767 54.1353 184.597 53.3979C184.259 53.0861 183.984 52.6322 183.773 52.036C183.563 51.4398 183.446 50.8631 183.423 50.3057C183.41 49.9806 183.442 49.6304 183.52 49.255C182.988 48.7651 182.695 47.8699 182.642 46.5694C182.617 45.9656 182.647 45.5457 182.73 45.3097C182.285 44.6766 182.053 44.1278 182.034 43.6634C182.008 43.0132 182.239 42.4221 182.729 41.8903C182.06 41.4525 181.705 40.7459 181.665 39.7706C181.633 38.981 181.794 38.3696 182.148 37.9364C181.483 37.5915 181.118 36.6295 181.053 35.0503C181.017 34.1679 181.081 33.4674 181.246 32.9489C181.002 32.6797 180.776 32.2703 180.568 31.7206C180.404 31.1225 180.309 30.5216 180.284 29.9178C180.258 29.2676 180.331 28.7761 180.503 28.4433C180.051 27.6245 179.801 26.6345 179.753 25.4734C179.725 24.7767 179.776 23.7743 179.909 22.4662C179.548 21.5971 179.346 20.6517 179.304 19.6299C179.266 18.701 179.374 17.9289 179.628 17.3137C179.048 16.7792 178.727 15.7689 178.666 14.2826C178.638 13.5859 178.681 12.9561 178.798 12.393C178.298 12.6926 177.793 12.8529 177.282 12.8739C176.772 12.8948 176.279 12.7987 175.805 12.5855C175.488 12.7847 175.05 12.8956 174.493 12.9185C173.564 12.9566 172.905 12.7743 172.516 12.3715C172.294 12.6133 171.953 12.8133 171.494 12.9717C171.036 13.1301 170.551 13.2198 170.04 13.2407C168.879 13.2883 168.078 13.042 167.637 12.5018C167.36 12.5597 166.989 12.5982 166.525 12.6172C165.364 12.6649 164.496 12.4911 163.922 12.0959C163.347 11.7008 163.046 11.1549 163.017 10.4582C162.985 9.66865 163.326 8.91029 164.04 8.18314C164.753 7.40954 165.62 7.00179 166.642 6.95988C167.106 6.94083 167.645 7.03504 168.259 7.2425C168.613 6.80926 169.324 6.57073 170.393 6.52692C171.275 6.49073 171.955 6.62566 172.433 6.93173C172.791 6.59137 173.435 6.40215 174.364 6.36405C174.967 6.33929 175.551 6.38515 176.114 6.50162C176.723 6.61619 177.172 6.78388 177.46 7.00467C177.766 6.52689 178.616 6.25942 180.01 6.20228C181.264 6.15085 182.062 6.32747 182.404 6.73214C182.76 6.34534 183.403 6.13289 184.332 6.09479C185.214 6.0586 185.78 6.24475 186.029 6.65323C186.57 6.21236 187.374 5.97003 188.442 5.92621C189.65 5.87669 190.589 6.09404 191.26 6.57827Z" fill="#272425"/>
<path d="M213.439 15.2989C213.709 16.2183 213.857 16.9799 213.881 17.5837C213.891 17.8159 213.868 18.3984 213.813 19.3311C214.065 19.786 214.21 20.5011 214.25 21.4765C214.285 22.3125 214.195 22.9675 213.982 23.4415C214.233 23.8964 214.368 24.3329 214.385 24.7509C214.409 25.3546 214.224 25.9438 213.829 26.5183C214.187 27.2945 214.382 28.1006 214.417 28.9366C214.443 29.5869 214.357 30.3115 214.157 31.1106C214.455 31.5636 214.618 32.1385 214.646 32.8351C214.675 33.5318 214.544 34.3048 214.253 35.1542C214.646 35.6498 214.853 36.1763 214.876 36.7337C214.899 37.291 214.735 37.8327 214.384 38.3589C214.584 38.6764 214.692 39.0441 214.709 39.4621C214.726 39.8801 214.628 40.3261 214.415 40.8001C214.813 41.4351 215.019 41.9151 215.032 42.2403C215.044 42.5189 214.897 42.9204 214.593 43.4446C214.806 44.0872 214.918 44.5711 214.932 44.8962C214.96 45.5929 214.73 46.2071 214.24 46.739C214.837 47.6915 215.164 48.8644 215.221 50.2577C215.292 51.9762 214.853 53.1805 213.904 53.8708C213.453 54.2149 212.972 54.3975 212.461 54.4184C211.579 54.4546 210.819 54.0903 210.183 53.3255C209.592 52.5124 209.276 51.6181 209.236 50.6428C209.217 50.1783 209.268 49.7343 209.39 49.3105C208.95 48.7703 208.708 47.9893 208.666 46.9676C208.624 45.9458 208.803 45.1941 209.202 44.7125C209.099 44.4841 209.04 44.1609 209.023 43.7429C209.009 43.4177 209.022 43.1613 209.061 42.9737C208.813 42.6116 208.677 42.1287 208.652 41.5249C208.622 40.7818 208.782 40.1472 209.133 39.621C208.746 39.2647 208.54 38.7847 208.515 38.1809C208.498 37.7629 208.596 37.3169 208.809 36.8429C208.608 36.479 208.491 35.879 208.456 35.043C208.414 34.0212 208.62 33.3614 209.073 33.0637C208.574 32.2468 208.309 31.4435 208.276 30.6539C208.259 30.2359 208.359 29.8364 208.576 29.4553C208.224 28.8184 208.031 28.082 207.997 27.2459C207.957 26.2706 208.156 25.4483 208.594 24.779C208.391 24.3686 208.282 23.9777 208.266 23.6061C208.253 23.281 208.377 22.9037 208.639 22.4743C208.246 21.9786 208.038 21.4289 208.013 20.8251C207.992 20.3142 208.117 19.9602 208.388 19.763C208.048 19.4047 207.862 18.8541 207.832 18.1109C207.809 17.5536 207.931 17.1299 208.198 16.8398C207.754 16.2067 207.507 15.2864 207.457 14.0788C207.413 13.0106 207.545 12.2608 207.853 11.8294C207.405 11.1035 207.161 10.276 207.123 9.34712C207.089 8.51111 207.25 7.8997 207.606 7.51291C207.62 6.72144 207.897 6.08205 208.435 5.59474C208.971 5.06099 209.611 4.77887 210.354 4.74839C210.865 4.72744 211.335 4.84773 211.765 5.10925C212.668 5.58396 213.142 6.35542 213.186 7.42366C213.222 8.30611 213.025 9.17487 212.595 10.0299C213.242 11.0734 213.593 12.2454 213.646 13.5458C213.673 14.1961 213.604 14.7804 213.439 15.2989Z" fill="#CB2229"/>
<path d="M255.492 2.33889C256.289 2.49229 256.908 2.83908 257.349 3.37928C257.79 3.91947 258.025 4.56113 258.056 5.30425C258.103 6.46538 257.704 7.50526 256.858 8.42391C257.243 8.73378 257.451 9.2835 257.484 10.0731C257.516 10.8626 257.386 11.6589 257.093 12.4618C256.8 13.2647 256.472 13.7666 256.108 13.9676C256.597 14.5524 256.862 15.3324 256.902 16.3078C256.938 17.1902 256.787 18.0338 256.447 18.8387C256.153 19.5951 255.731 20.0777 255.181 20.2863C255.479 20.7393 255.643 21.3374 255.673 22.0805C255.698 22.6843 255.607 23.2928 255.399 23.9061C255.19 24.473 254.882 24.9043 254.475 25.2002C254.671 25.4248 254.781 25.839 254.805 26.4427C254.836 27.1859 254.704 27.9356 254.409 28.6921C254.113 29.4021 253.669 29.9321 253.079 30.2819C253.469 30.7311 253.677 31.2576 253.702 31.8614C253.728 32.5117 253.593 33.1686 253.294 33.8321C253.04 34.4473 252.687 34.9038 252.234 35.2015C252.585 35.8384 252.779 36.5981 252.816 37.4805C252.856 38.4559 252.754 39.3905 252.512 40.2844C252.269 41.1783 251.924 41.8205 251.474 42.2111C251.586 42.6718 251.647 43.0182 251.657 43.2504C251.695 44.1793 251.333 45.0083 250.572 45.7374C250.642 46.2928 250.531 46.9952 250.24 47.8445C249.994 48.6455 249.694 49.2859 249.342 49.7655C249.469 50.5977 249.15 51.3319 248.385 51.9681C247.667 52.6024 246.797 52.9404 245.775 52.9824C244.8 53.0224 243.951 52.7547 243.23 52.1795C242.507 51.5579 242.071 50.5755 241.923 49.2324C241.352 48.9302 240.894 48.5302 240.548 48.0327C240.2 47.4887 240.013 46.9148 239.988 46.311C239.973 45.9394 240.029 45.5882 240.155 45.2574C239.588 45.048 239.131 44.6946 238.785 44.197C238.484 43.6511 238.367 43.0744 238.435 42.4668C237.756 41.7968 237.393 40.8812 237.345 39.7201C237.325 39.2092 237.333 38.8367 237.369 38.6025C236.656 38.2131 236.1 37.7009 235.701 37.0659C235.348 36.3826 235.156 35.6693 235.125 34.9262C235.108 34.5082 235.119 34.2054 235.158 34.0177C234.249 33.4036 233.768 32.4696 233.717 31.2156C233.7 30.7976 233.71 30.4715 233.746 30.2374C233.274 30.0707 232.862 29.6688 232.511 29.0319C232.203 28.3467 232.06 27.678 232.08 27.0259C231.697 26.7624 231.326 26.2426 230.969 25.4664C230.609 24.6437 230.415 23.884 230.387 23.1874C229.35 22.8577 228.804 22.0194 228.748 20.6725C228.735 20.3474 228.765 19.9507 228.839 19.4825C227.74 18.7832 227.173 17.9923 227.137 17.1098C227.125 16.8311 227.139 16.598 227.178 16.4103C226.839 16.0985 226.544 15.6919 226.29 15.1906C226.035 14.6427 225.897 14.1134 225.876 13.6025C225.867 13.3703 225.903 13.1129 225.984 12.8304C225.557 12.6154 225.192 12.2349 224.891 11.6889C224.634 11.0947 224.493 10.4957 224.468 9.89188C224.438 9.14876 224.581 8.67764 224.899 8.47853C224.307 7.66538 223.998 6.93369 223.971 6.28346C223.941 5.54034 224.171 4.92608 224.663 4.44067C225.155 3.95527 225.773 3.69733 226.516 3.66685C227.352 3.63256 228.087 3.9746 228.721 4.69296C229.402 5.40941 229.795 6.48658 229.9 7.92447C230.473 8.27317 230.938 8.83564 231.296 9.61187C231.698 10.3397 231.914 11.0752 231.944 11.8184C231.958 12.1435 231.945 12.3999 231.906 12.5876C232.335 12.8491 232.676 13.2073 232.927 13.6622C233.176 14.0707 233.311 14.5072 233.33 14.9716C233.351 15.4825 233.253 15.9285 233.036 16.3096C234.181 17.007 234.776 17.9131 234.822 19.0277C234.832 19.26 234.799 19.6102 234.726 20.0785C235.105 20.249 235.421 20.585 235.674 21.0863C235.974 21.5858 236.136 22.1374 236.161 22.7412C236.174 23.0663 236.161 23.3227 236.122 23.5104C237.076 24.0761 237.584 25.1253 237.647 26.658C238.164 26.7763 238.695 27.2431 239.24 28.0581C239.783 28.8267 240.073 29.6523 240.109 30.5347L240.065 31.1646C240.545 31.5171 240.941 32.1056 241.254 32.9302C241.565 33.7084 241.689 34.4477 241.624 35.1482C242.056 35.4561 242.353 35.9091 242.517 36.5072C242.726 37.0569 242.894 37.7479 243.021 38.5801C243.545 38.8843 243.935 39.3102 244.19 39.8581C244.49 40.3575 244.604 40.8878 244.534 41.449C245.072 42.0783 245.356 42.7645 245.387 43.5076C245.613 43.3587 245.745 43.1672 245.782 42.9331C245.549 40.663 245.84 39.2554 246.655 38.7102C246.311 38.2591 246.125 37.6852 246.096 36.9885C246.071 36.3847 246.165 35.8226 246.376 35.3022C246.632 34.7334 246.918 34.3495 247.236 34.1504C247.132 33.8755 247.074 33.5987 247.062 33.3201C247.039 32.7627 247.108 32.1784 247.269 31.567C247.477 30.9536 247.739 30.5474 248.057 30.3483C247.902 29.9825 247.817 29.6138 247.802 29.2422C247.756 28.1275 248.094 27.2763 248.814 26.6885C248.57 26.4193 248.436 25.9829 248.411 25.3791C248.383 24.6824 248.493 23.9568 248.741 23.2022C249.034 22.3993 249.358 21.8045 249.714 21.4177C249.454 20.7305 249.311 20.0851 249.286 19.4813C249.233 18.1808 249.606 17.0722 250.406 16.1555C250.249 15.7432 250.16 15.2584 250.137 14.701C250.099 13.7721 250.25 12.9285 250.591 12.1702C250.979 11.4099 251.498 11.0164 252.148 10.9898C251.413 10.0894 251.029 9.22126 250.994 8.38525C250.956 7.45635 251.319 6.6506 252.081 5.96798C252.026 5.73766 251.99 5.43672 251.975 5.06516C251.94 4.22915 252.123 3.57035 252.522 3.08876C252.965 2.55881 253.605 2.2767 254.441 2.24241C254.673 2.23289 255.023 2.26505 255.492 2.33889Z" fill="#FFF12D"/>
<path d="M289.518 2.26927C289.969 1.9251 290.566 1.73778 291.309 1.7073C292.378 1.66349 293.46 1.96802 294.557 2.62088C295.068 2.59993 295.494 2.79179 295.837 3.19646C296.179 3.60113 296.362 4.10535 296.387 4.70914C296.42 5.49871 296.216 6.20491 295.776 6.82774C295.337 7.45057 294.699 7.77913 293.863 7.81342C293.259 7.83818 292.601 7.67907 291.889 7.33608C291.533 7.72288 291.053 7.92866 290.449 7.95343C289.799 7.9801 289.116 7.77549 288.4 7.33961C287.945 7.59089 287.253 7.73557 286.324 7.77367C284.977 7.82891 283.924 7.66277 283.164 7.27524C282.48 7.62893 281.767 7.82101 281.024 7.85149C280.42 7.87625 279.836 7.80717 279.271 7.64425C278.677 7.90124 278.101 8.04116 277.543 8.06402C276.8 8.09449 276.049 7.91597 275.288 7.52844C274.471 8.02718 273.74 8.33633 273.093 8.45589C273.451 9.23212 273.649 10.0847 273.687 11.0136C273.734 12.1747 273.517 13.1141 273.035 13.8317C273.628 14.6913 273.947 15.6552 273.991 16.7235C274.025 17.5595 273.85 18.404 273.466 19.2572C273.904 19.7045 274.136 20.2765 274.165 20.9732C274.184 21.4376 274.044 22.0016 273.746 22.6652C274.154 22.4158 274.66 22.2788 275.264 22.254C275.729 22.2349 276.056 22.2681 276.245 22.3533C276.741 21.9608 277.291 21.7522 277.894 21.7274C278.498 21.7027 279.112 21.9333 279.737 22.4195C280.289 22.2573 280.75 22.1686 281.122 22.1533C281.354 22.1438 281.751 22.174 282.312 22.2441C282.866 22.1283 283.258 22.0657 283.491 22.0562C284.28 22.0238 284.868 22.1858 285.255 22.5421C285.617 22.2946 286.031 22.1614 286.495 22.1423C287.052 22.1195 287.405 22.2213 287.554 22.4478C287.967 22.2913 288.289 22.2083 288.521 22.1988C288.846 22.1855 289.291 22.2602 289.856 22.4232C290.447 22.0733 291.02 21.8869 291.578 21.8641C292.367 21.8317 293.053 22.106 293.635 22.6869C294.216 23.2214 294.52 23.8369 294.548 24.5336C294.573 25.1374 294.385 25.6569 293.984 26.092C293.583 26.5272 292.943 26.7861 292.062 26.8687C291.667 27.4432 290.982 27.7504 290.006 27.7904C289.124 27.8266 288.325 27.6268 287.609 27.1909C287.164 27.6744 286.5 27.9342 285.617 27.9704C284.828 28.0028 284.17 27.8437 283.644 27.4931C283.284 27.787 282.895 27.9425 282.477 27.9597C282.198 27.9711 281.962 27.8877 281.769 27.7096C281.277 28.195 280.59 28.4558 279.707 28.492C279.057 28.5186 278.447 28.4041 277.879 28.1483C277.424 28.3995 277.034 28.5318 276.709 28.5452C276.244 28.5642 275.773 28.4207 275.295 28.1146C274.978 28.3138 274.727 28.4403 274.543 28.4944C274.359 28.5485 274.104 28.5589 273.777 28.5258C274.229 29.3447 274.465 29.9864 274.484 30.4508C274.501 30.8688 274.382 31.3622 274.126 31.931C274.466 32.2892 274.648 32.747 274.671 33.3043C274.688 33.7223 274.59 34.1683 274.377 34.6423C274.717 35.0005 274.9 35.4815 274.924 36.0853C274.947 36.6426 274.804 37.1138 274.494 37.4987C274.795 38.0446 274.953 38.4801 274.966 38.8052C274.977 39.0839 274.811 39.5559 274.466 40.2214C274.659 40.3996 274.763 40.6512 274.776 40.9763C274.793 41.3943 274.665 41.6787 274.392 41.8295C274.874 42.2284 275.128 42.753 275.155 43.4032C275.164 43.6355 275.134 44.0322 275.064 44.5933L275.479 44.5065C275.99 44.4855 276.534 44.6959 277.11 45.1375C277.786 44.598 278.681 44.3054 279.796 44.2597C280.214 44.2425 280.657 44.2709 281.125 44.3447C281.39 44.0082 281.775 43.7365 282.278 43.5298C282.781 43.3231 283.335 43.2073 283.938 43.1826C284.914 43.1426 285.665 43.3211 286.194 43.7181C286.453 43.2423 286.926 42.8507 287.611 42.5435C288.296 42.2362 288.987 42.0683 289.684 42.0397C290.195 42.0188 290.615 42.0713 290.946 42.1973C291.446 41.8977 291.904 41.7393 292.322 41.7222C293.066 41.6917 293.728 41.9669 294.31 42.5478C294.892 43.1288 295.2 43.814 295.232 44.6036C295.272 45.5789 294.862 46.3633 294.003 46.9569C293.832 47.3361 293.474 47.6764 292.928 47.9779C292.38 48.233 291.781 48.3739 291.131 48.4006C290.481 48.4272 289.965 48.3321 289.584 48.1151C289.228 48.5019 288.753 48.847 288.161 49.1504C287.567 49.4074 286.968 49.5483 286.364 49.5731C285.435 49.6112 284.705 49.3852 284.173 48.8953C283.417 49.7637 282.413 50.2236 281.159 50.275C280.927 50.2846 280.53 50.2543 279.969 50.1843C279.063 50.7797 278.168 51.0955 277.286 51.1317C276.589 51.1603 275.978 50.9993 275.452 50.6487C274.973 51.4592 274.246 51.8844 273.271 51.9244C272.435 51.9587 271.679 51.6641 271.002 51.0405C270.371 50.4151 270.131 49.6573 270.28 48.7672C269.99 48.5 269.764 48.0905 269.602 47.5389C269.44 46.9873 269.347 46.4328 269.324 45.8755C269.307 45.4575 269.318 45.1546 269.357 44.9669C268.728 44.3879 268.385 43.3785 268.325 41.9387C268.301 41.3349 268.348 40.7747 268.466 40.2581C268.582 39.6951 268.729 39.2936 268.905 39.0538C268.654 38.5988 268.518 38.1159 268.497 37.605C268.487 37.3728 268.521 37.069 268.599 36.6937C268.164 36.2928 267.932 35.744 267.903 35.0473C267.877 34.3971 268.018 33.8796 268.328 33.4947C268.077 33.0397 267.944 32.6265 267.928 32.2549C267.907 31.744 268.05 31.2497 268.356 30.7719C267.95 29.9511 267.731 29.146 267.699 28.3564C267.659 27.3811 267.922 26.4398 268.49 25.5326C268.187 24.9402 267.901 24.2076 267.632 23.3346C267.41 22.4598 267.283 21.6276 267.251 20.838C267.19 19.3518 267.496 18.3157 268.17 17.7298C267.896 16.7175 267.758 16.1882 267.756 16.1417C267.432 15.0385 267.26 14.2546 267.241 13.7902C267.212 13.0935 267.34 12.2508 267.626 11.2622C267.38 10.9466 267.172 10.4201 267.003 9.68267C266.833 8.94527 266.764 8.41306 266.797 8.08604C266.217 7.55155 265.911 6.88953 265.879 6.09997C265.854 5.49618 266.017 4.93122 266.367 4.40509C266.763 3.8306 267.281 3.43714 267.924 3.22469C268.236 2.88624 268.667 2.6127 269.216 2.40406C269.764 2.14898 270.34 2.00906 270.944 1.98429C271.733 1.95191 272.415 2.13329 272.99 2.52844C273.77 2.26383 274.555 2.11533 275.344 2.08295C276.459 2.03723 277.375 2.25554 278.093 2.73786C278.503 2.53494 278.987 2.42205 279.544 2.39919C280.055 2.37823 280.455 2.47816 280.743 2.69895C281.012 2.4553 281.681 2.31156 282.749 2.26775C284.142 2.21061 285.243 2.39807 286.052 2.83013C286.542 2.29829 287.158 2.01712 287.901 1.98665C288.366 1.9676 288.905 2.0618 289.518 2.26927Z" fill="#309F85"/>
</svg>
